<svg width="408" height="439" viewBox="0 0 408 439" fill="none" xmlns="http://www.w3.org/2000/svg">
<path d="M14.7095 235.13C38.2595 222.43 61.6595 229.58 61.6595 229.58C44.9095 244.82 14.7095 235.13 14.7095 235.13Z" fill="#E0E0E0"/>
<path d="M89.1797 212.12C93.8097 227.87 86.4297 241.88 86.4297 241.88C79.3797 230.16 89.1797 212.12 89.1797 212.12Z" fill="#E0E0E0"/>
<path d="M86.5799 249.3C69.0799 258.39 50.8999 253.02 50.8999 253.02C63.0999 242.03 86.5799 249.3 86.5799 249.3Z" fill="#E0E0E0"/>
<path d="M49.8497 215.42C50.0797 215.13 61.4097 223.8 75.1597 234.78C88.9197 245.76 99.8797 254.89 99.6497 255.17C99.4197 255.46 88.0897 246.79 74.3297 235.81C60.5897 224.84 49.6197 215.7 49.8497 215.42Z" fill="#E0E0E0"/>
<path d="M13.4297 193.58C13.4297 193.58 43.9097 195.21 55.0297 220.11C55.0297 220.11 29.0097 219.07 13.4297 193.58Z" fill="#E0E0E0"/>
<path d="M55.8799 184.39C55.8799 184.39 79.3699 203.87 73.4699 230.49C73.4699 230.49 53.1999 214.15 55.8799 184.39Z" fill="#E0E0E0"/>
<path d="M407.88 165.69C380.21 160.16 358.83 174.6 358.83 174.6C380.41 184.78 407.88 165.69 407.88 165.69Z" fill="#E0E0E0"/>
<path d="M325.68 165.48C325.87 182.79 337.64 194.64 337.64 194.64C341.13 180.64 325.68 165.48 325.68 165.48Z" fill="#E0E0E0"/>
<path d="M339.78 202.17C360.23 205.93 376.9 194.9 376.9 194.9C361.21 187.59 339.78 202.17 339.78 202.17Z" fill="#E0E0E0"/>
<path d="M366.35 156.66C366.03 156.44 357.28 168.68 346.8 183.99C336.32 199.31 328.09 211.9 328.4 212.12C328.72 212.34 337.47 200.1 347.95 184.78C358.43 169.47 366.67 156.88 366.35 156.66Z" fill="#E0E0E0"/>
<path d="M396.33 123.39C396.33 123.39 366.11 134.45 362.57 162.99C362.57 162.99 388.49 153.91 396.33 123.39Z" fill="#E0E0E0"/>
<path d="M350.689 127.24C350.689 127.24 333.019 154.14 347.189 179.16C347.179 179.15 362.579 156.41 350.689 127.24Z" fill="#E0E0E0"/>
<path d="M339.39 30.02C319.98 26.14 304.97 36.27 304.97 36.27C320.12 43.42 339.39 30.02 339.39 30.02Z" fill="#E0E0E0"/>
<path d="M281.72 29.87C281.86 42.02 290.11 50.33 290.11 50.33C292.56 40.51 281.72 29.87 281.72 29.87Z" fill="#E0E0E0"/>
<path d="M291.61 55.61C305.96 58.25 317.66 50.51 317.66 50.51C306.65 45.38 291.61 55.61 291.61 55.61Z" fill="#E0E0E0"/>
<path d="M310.26 23.6799C310.04 23.5299 303.9 32.1099 296.54 42.8599C289.19 53.6099 283.41 62.4399 283.63 62.5899C283.85 62.7399 289.99 54.1599 297.35 43.4099C304.7 32.6699 310.48 23.8399 310.26 23.6799Z" fill="#E0E0E0"/>
<path d="M331.29 0.339966C331.29 0.339966 310.08 8.09997 307.6 28.12C307.61 28.12 325.79 21.75 331.29 0.339966Z" fill="#E0E0E0"/>
<path d="M299.27 3.03992C299.27 3.03992 286.87 21.9099 296.81 39.4699C296.81 39.4699 307.61 23.5099 299.27 3.03992Z" fill="#E0E0E0"/>
<path d="M4.40048 127.91L0.0756836 169.757L52.4168 175.167L56.7416 133.32L4.40048 127.91Z" fill="#F5F5F5"/>
<path d="M5.92791 130.728L2.14795 167.303L50.8087 172.332L54.5886 135.757L5.92791 130.728Z" fill="#EBEBEB"/>
<path d="M2.1499 167.31L21.4999 146.33L30.5599 161.64L38.4799 154.77L50.8099 172.34L2.1499 167.31Z" fill="#E0E0E0"/>
<path d="M36.7801 145.09C36.5601 147.21 34.6701 148.74 32.5501 148.53C30.4301 148.31 28.9001 146.42 29.1101 144.3C29.3301 142.18 31.2201 140.65 33.3401 140.86C35.4601 141.08 37.0001 142.98 36.7801 145.09Z" fill="#E0E0E0"/>
<path d="M327.393 335.554L322.979 365.612L360.576 371.133L364.99 341.075L327.393 335.554Z" fill="#F5F5F5"/>
<path d="M328.408 337.637L324.55 363.905L359.506 369.039L363.364 342.77L328.408 337.637Z" fill="#EBEBEB"/>
<path d="M324.55 363.92L339.15 349.38L345.22 360.71L351.15 356L359.5 369.05L324.55 363.92Z" fill="#E0E0E0"/>
<path d="M350.22 348.96C350 350.48 348.58 351.53 347.06 351.31C345.54 351.09 344.49 349.67 344.71 348.15C344.93 346.63 346.35 345.58 347.87 345.8C349.39 346.03 350.44 347.44 350.22 348.96Z" fill="#E0E0E0"/>
<path d="M48.3805 289.33L14.8379 307.19L29.1165 334.006L62.6591 316.146L48.3805 289.33Z" fill="#F5F5F5"/>
<path d="M48.0896 291.657L16.9038 308.263L29.3823 331.698L60.5681 315.093L48.0896 291.657Z" fill="#EBEBEB"/>
<path d="M29.3701 331.7L32.5001 311.33L44.1001 316.85L46.0901 309.54L60.5501 315.09L29.3701 331.7Z" fill="#E0E0E0"/>
<path d="M41.1602 304.43C41.8802 305.79 41.3702 307.47 40.0102 308.19C38.6502 308.91 36.9702 308.4 36.2502 307.04C35.5302 305.68 36.0402 304 37.4002 303.28C38.7602 302.56 40.4402 303.07 41.1602 304.43Z" fill="#E0E0E0"/>
<path d="M324.36 139.82C323.05 136.86 322.75 133.59 321.89 130.48C321.43 128.81 320.64 127.04 319.08 126.3C318.04 125.81 316.82 125.88 315.72 125.54C311.77 124.36 310.69 118.84 306.95 117.13C305.77 116.6 304.46 116.5 303.19 116.35C298.18 115.76 293.01 114.03 289.86 110.1C288.82 108.83 288.04 107.33 286.78 106.3C285.49 105.26 283.51 104.82 282.26 105.88C283.32 107.99 284.35 110.11 285.39 112.2C286.34 114.1 287.31 116.07 288.9 117.46C290.51 118.88 292.87 119.61 294.79 118.73C295.42 118.43 296.06 117.95 296.78 118.03C297.29 118.09 297.73 118.45 298.07 118.85C300.79 121.87 299.91 126.88 297.25 129.96C294.61 133.02 290.68 134.63 286.9 136.13C285.55 136.66 284.11 137.21 282.67 136.95C280.05 136.46 278.66 133.61 277.9 131.06C276.19 125.4 275.36 119.25 271.86 114.48C270.74 112.98 269.35 111.61 268.67 109.85C267.95 107.95 268.12 105.73 266.98 104.06C265.8 102.31 263.28 101.29 263.11 99.18C263 97.7 264.23 96.39 265.58 95.76C266.93 95.11 268.45 94.92 269.85 94.34C270.4 94.11 271.01 93.71 271.03 93.11C271.03 92.22 269.8 91.86 269.49 91.04C269.15 90.11 270.1 89.24 270.5 88.34C271.37 86.27 269.21 84.18 267.12 83.33C265.05 82.48 262.54 81.87 261.56 79.84C261.12 78.91 261.07 77.83 260.88 76.82C260.39 74.26 258.51 71.79 255.94 71.37C253.34 70.95 250.47 73.25 250.89 75.83C251.14 77.25 252.2 78.34 252.77 79.65C253.36 80.96 253.19 82.9 251.84 83.33C249.62 84.01 247.49 79.95 245.63 81.34C246.39 83.94 247.13 86.54 247.89 89.16C244.97 90.64 241.49 87.96 240.24 84.91C238.99 81.89 238.95 78.42 237.47 75.51C235.99 72.57 232 70.4 229.46 72.47C229.33 76.23 234.3 77.75 236.5 80.79C238.08 82.99 237.85 86.56 235.51 87.95C233.19 89.34 229.49 86.91 230.38 84.36C230.7 83.47 231.44 82.73 231.52 81.78C231.6 80.6 230.61 79.65 229.7 78.89C228.28 77.69 226.87 76.5 225.45 75.32C224.54 74.56 223.57 73.76 222.43 73.42C219.51 72.58 216.6 74.94 215.06 77.54C213.52 80.16 212.65 83.22 210.52 85.4C207.46 88.57 201.65 88.76 198.77 85.44C195.88 82.12 197.35 75.91 201.6 74.71C203.21 74.27 205.23 74.31 206.08 72.89C207.56 70.38 203.33 67.16 204.79 64.63C205.91 62.69 208.87 63.57 211.02 62.92C213.15 62.27 214.36 60.11 215.63 58.25C216.88 56.41 218.84 54.55 221.04 55.04C220.87 53.75 220.7 52.36 221.27 51.2C221.84 50.02 223.45 49.26 224.5 50.02C223.42 51.79 224.71 54.27 226.59 55.15C228.47 56.04 230.67 55.83 232.74 55.59C234.81 55.34 237.41 54.58 237.58 52.51C237.64 51.83 237.39 51.12 237.64 50.48C238.55 48.01 243.11 51.41 244.87 49.42C245.88 48.38 244.76 46.55 243.35 46.21C241.96 45.85 240.5 46.38 239.06 46.42C237.62 46.48 235.87 45.72 235.81 44.29C235.75 42.87 237.33 41.86 237.5 40.47C237.77 38.1 233.76 37.49 232.34 39.41C230.95 41.33 231.43 43.97 231.85 46.32C232.29 48.67 232.5 51.43 230.77 53.08C230.03 54.2 228.11 53.61 227.47 52.43C226.81 51.25 226.96 49.81 226.86 48.48C226.75 47.13 226.16 45.61 224.85 45.25C223.94 45 222.97 45.44 222.04 45.57C218.36 46.01 215.81 41.26 216.97 37.75C218.11 34.22 221.45 31.96 224.68 30.17C227.05 28.86 229.98 27.63 232.33 28.97C233.43 29.58 234.19 30.64 235.27 31.27C237.13 32.37 239.43 31.97 241.57 32.01C244.93 32.09 248.25 33.38 250.76 35.58C251.71 36.45 252.6 37.88 251.86 38.92C251.06 40.02 248.75 40.25 249.16 41.54C251.65 42.36 254.63 40.44 254.91 37.84C256.14 38.39 257.02 39.64 257.13 40.97C259.81 38.24 264.97 38.65 267.17 41.79C267.76 42.61 268.18 43.61 269.03 44.18C269.88 44.73 271.35 44.45 271.46 43.46C271.5 43.14 271.4 42.83 271.29 42.53C270.78 41.09 270.25 39.68 269.75 38.26C271.71 37.2 274.04 38.85 275.37 40.63C280.31 47.24 283.84 43.27 290.81 44.35C295.52 45.07 297.59 48.09 300.25 51.74C308.4 62.98 319.18 72.19 326.6 83.94C327.38 85.17 328.1 86.41 328.78 87.68C328.65 87.36 328.55 87.05 328.42 86.73C325.5 79.06 321.89 71.73 317.65 64.82C316.74 63.34 315.81 61.88 314.86 60.45C314.27 59.56 313.66 58.65 313.04 57.79C312.26 56.65 311.43 55.55 310.61 54.45C309.95 53.56 309.3 52.7 308.62 51.85C308.16 51.26 307.67 50.67 307.18 50.08C306.67 49.4 306.12 48.75 305.53 48.09L303.76 46.04C303.59 45.83 303.4 45.62 303.19 45.41C302.58 44.69 301.92 43.99 301.27 43.3C301.23 43.22 301.16 43.15 301.08 43.09C300.91 42.9 300.72 42.71 300.53 42.52C300 41.93 299.43 41.36 298.88 40.79C297.97 39.86 297.04 38.93 296.09 38.04C295.31 37.26 294.51 36.52 293.68 35.78C292.96 35.13 292.24 34.47 291.5 33.84C290.78 33.21 290.06 32.59 289.32 31.98C288.43 31.22 287.52 30.48 286.59 29.74H286.57C284.01 27.69 281.37 25.75 278.67 23.93C277.99 23.47 277.34 23.02 276.66 22.58C275.98 22.11 275.29 21.69 274.61 21.27C273.91 20.85 273.24 20.4 272.54 20C271.84 19.56 271.15 19.15 270.45 18.75C269.88 18.41 269.33 18.1 268.76 17.8C268.46 17.61 268.19 17.46 267.89 17.31C266.69 16.63 265.46 15.98 264.24 15.37C263.63 15.05 263.01 14.74 262.38 14.44C261.6 14.04 260.8 13.66 259.99 13.3C259.88 13.24 259.76 13.17 259.63 13.13C258.91 12.79 258.19 12.45 257.45 12.14C256.41 11.7 255.38 11.25 254.34 10.83C253.16 10.34 251.97 9.86 250.77 9.41C249.44 8.9 248.11 8.42 246.76 7.97C245.41 7.51 244.03 7.06 242.66 6.64C241.29 6.22 239.91 5.84 238.52 5.46C235.77 4.72 232.99 4.07 230.17 3.5C230.13 3.48 230.06 3.48 230.02 3.46C228.94 3.25 227.87 3.04 226.79 2.87C226.71 2.85 226.64 2.83 226.58 2.83C226.12 2.75 225.63 2.65999 225.14 2.59999C223.13 2.25999 221.1 1.99 219.06 1.75C218.83 1.71 218.57 1.68999 218.32 1.66999C217.73 1.58999 217.14 1.54 216.52 1.48C215.17 1.35 213.82 1.25 212.44 1.16C211.02 1.05 209.59 0.989997 208.15 0.949997C206.65 0.889997 205.15 0.869995 203.65 0.869995C199.68 0.869995 195.75 1.04 191.86 1.4C190.93 1.46 190.02 1.55 189.11 1.65C188.16 1.76 187.21 1.86 186.26 1.99C185.31 2.12 184.36 2.24 183.43 2.39C182.48 2.54 181.55 2.68999 180.6 2.84999C179.8 2.97999 178.97 3.12 178.17 3.29C176.18 3.67 174.22 4.09 172.28 4.56C171.37 4.77 170.46 4.99999 169.55 5.25999C168.64 5.48999 167.73 5.75 166.85 6C165.35 6.42 163.89 6.88999 162.43 7.34999H162.41C161.23 7.74999 160.02 8.15 158.86 8.55C158.84 8.55 158.8 8.57 158.78 8.59C157.58 9.01 156.41 9.45999 155.23 9.91999C155.17 9.93999 155.1 9.96 155.04 9.98C153.96 10.4 152.89 10.85 151.83 11.29C150.5 11.84 149.19 12.43 147.9 13.02C146.8 13.53 145.72 14.03 144.67 14.56C143.53 15.13 142.39 15.7 141.27 16.29C141.23 16.31 141.19 16.33 141.14 16.35C140.06 16.92 138.98 17.51 137.93 18.12C136.83 18.73 135.75 19.37 134.68 20.04H134.66C133.65 20.65 132.65 21.26 131.66 21.9C131.28 22.13 130.92 22.39 130.54 22.64C129.48 23.32 128.47 24.01 127.43 24.73C126.16 25.6 124.94 26.5 123.71 27.41C122.63 28.21 121.58 29.04 120.54 29.86C114.56 34.63 108.98 39.89 103.93 45.6C102.13 47.59 100.44 49.61 98.8 51.68C97.41 53.45 96.05 55.25 94.76 57.11C93.6 58.73 92.48 60.37 91.4 62.05C92.48 60.38 93.6 58.73 94.76 57.11C95.1 57.07 95.44 57.03 95.77 57C97.67 56.85 99.68 56.92 101.39 56.09C102.97 55.31 104.09 53.89 105.53 52.88C109.21 50.26 115.23 49.77 116.22 45.38C116.56 43.9 116.16 42.3 116.71 40.88C117.75 38.24 121.27 37.86 124.1 37.9C125.3 37.9 126.72 38.07 127.27 39.12C127.67 39.86 127.44 40.79 127.14 41.57C125.41 46.51 121.9 50.78 117.44 53.49C113.76 55.73 108.97 57.46 107.95 61.64C108.46 63.06 111.03 62.95 111.25 64.43C111.4 65.61 109.88 66.23 109.33 67.28C108.53 68.82 110.37 70.7 112.12 70.62C113.87 70.54 115.33 69.27 116.62 68.08C120.46 64.51 124.5 60.66 125.89 55.59C126.48 53.5 126.69 51.05 128.38 49.65C130.39 48 133.98 49.14 134.65 51.66C136.32 50.73 138.92 50.03 139.78 51.77C140.08 52.38 139.99 53.1 140.14 53.76C140.69 56.46 144.39 57.69 144.77 60.41C145.21 63.56 141.18 65.18 138.03 65.67C135.18 66.11 132.33 66.56 129.47 67.02C128.22 67.21 126.94 67.42 125.92 68.16C124.91 68.92 124.27 70.36 124.86 71.48C125.2 72.09 125.85 72.49 126.34 73C128.71 75.37 126.76 80.25 123.42 80.35C122.28 80.39 121.16 79.97 120.02 79.93C116.64 79.78 113.96 82.76 112.35 85.74C110.74 88.72 109.54 92.12 106.84 94.15C102.49 97.42 94.99 96.66 92.88 101.69C92.03 103.72 92.48 106 92.82 108.18C93.16 110.34 93.31 112.74 92.04 114.54C90.79 116.31 87.54 116.69 86.61 114.71C86.21 113.84 86.34 112.83 86.48 111.9C86.99 108.77 87.47 105.65 87.96 102.52C88.32 100.2 88.64 97.6 87.26 95.7C85.34 93.04 81.03 93.29 78.53 95.43C76.06 97.56 75.02 100.9 74.33 104.09C73.82 106.46 73.23 109.79 71.92 112.5C71.48 115.12 71.12 117.78 70.84 120.46C70.57 123.21 70.38 125.93 70.27 128.72C70.61 128.45 70.97 128.11 71.35 127.71C72.68 126.34 75.36 120.53 77.77 123.38C78.38 124.1 78.4 125.26 77.81 126.02C77.07 126.97 75.59 127.18 75.02 128.22C74.32 129.45 75.29 130.97 76.44 131.77C77.58 132.59 78.97 133.1 79.78 134.26C81.32 136.48 79.84 139.84 81.34 142.1C82.63 144.04 85.38 144.17 87.72 144.42C87.99 144.46 88.25 144.5 88.52 144.55C89.18 139.9 91.35 136.12 97.69 134.68C106.44 132.69 117.93 139.94 122.85 146.53C128.34 153.9 130.94 164.34 139.35 168.04C145.37 170.68 153.93 169.73 156.86 175.62C159.48 180.9 154.92 186.84 154.22 192.69C153.78 196.56 155.04 200.4 155.34 204.27C155.61 208.16 154.47 212.68 150.95 214.31C148.99 215.2 146.51 215.09 144.93 216.57C142.12 219.23 144.42 224.72 141.61 227.39C140.62 228.32 139.24 228.66 138.04 229.27C131.72 232.46 131.89 241.76 134.83 248.2C134.94 248.43 135.04 248.64 135.15 248.88C144.49 254.48 154.54 258.96 165.17 262.13C177.34 265.83 190.25 267.79 203.62 267.79C226.25 267.79 247.58 262.15 266.26 252.2H266.28C270.34 250.02 274.29 247.66 278.09 245.08C283.98 241.13 289.52 236.71 294.67 231.9C298.24 228.56 301.64 225.03 304.81 221.32C307.05 218.74 309.16 216.06 311.19 213.31C312.22 211.89 313.24 210.48 314.19 209.02C317.11 204.75 319.77 200.29 322.15 195.69C325.61 189.06 328.51 182.08 330.79 174.86C333.14 167.57 334.85 160.01 335.88 152.23C336.28 149.23 336.6 146.19 336.81 143.12C335.35 144.54 333.45 145.55 331.44 145.51C328.29 145.47 325.65 142.78 324.36 139.82Z" fill="#FAFAFA"/>
<path d="M171.79 35.77C169.14 37.35 167.74 40.34 165.7 42.65C163.66 44.96 160 46.61 157.59 44.68C156.43 43.76 155.91 42.23 155.78 40.75C155.59 38.63 156.1 36.45 157.22 34.63C158.37 32.76 160.12 31.28 161.1 29.31C162.07 27.34 161.87 24.45 159.88 23.53C158.8 23.03 157.44 23.23 156.49 22.52C154.77 21.25 156 18.26 158 17.5C160 16.74 162.22 17.33 164.35 17.47C172.09 17.96 177.78 12.9 183.6 8.69C188.12 5.42 197.76 1.55 203 4.89C205.09 6.22 205.91 9.65 203.94 11.16C203.06 11.83 201.84 11.98 201.02 12.73C200.04 13.63 199.9 15.1 199.33 16.3C197.87 19.43 193.64 20.57 192.28 23.75C191.46 25.66 191.83 28.04 190.57 29.7C189.57 31.01 187.83 31.48 186.23 31.86C182.87 32.66 179.5 33.46 176.14 34.26C174.63 34.61 173.11 34.98 171.79 35.77Z" fill="#EBEBEB"/>
<path d="M262 200.09C258.65 205.13 258.04 211.44 257.12 217.42C256.19 223.4 254.6 229.76 250 233.7C245.4 237.64 236.96 237.41 234.43 231.91C233.06 228.92 233.76 225.4 233.01 222.2C232.03 218.03 228.72 214.81 227.14 210.83C225.8 207.43 225.79 203.68 225.68 200.03C225.08 180.08 220.22 159.26 206.63 144.63C204.96 142.83 203.07 141.08 200.7 140.45C197.88 139.7 194.66 140.81 192.91 143.14C191.82 144.58 191.26 146.43 189.92 147.65C187.02 150.3 181.95 148.4 180.01 144.98C178.07 141.56 178.34 137.37 178.66 133.45C179.06 128.59 179.46 123.74 179.87 118.88C180.08 116.34 180.37 113.61 182.03 111.68C184.4 108.94 188.65 108.81 191.55 106.64C195.35 103.79 195.86 98.36 198.26 94.25C200.66 90.15 208.17 88.41 209.28 93.03C217.22 76.04 234.77 101.28 245.2 99.38C248.23 98.83 251.19 97.37 254.24 97.8C259.63 98.55 262.41 104.49 264.24 109.61C267.28 118.11 270.32 126.61 273.37 135.11C274.53 138.35 276.03 141.95 279.23 143.19C281.69 144.14 284.54 143.42 287.02 144.32C293.57 146.7 291.44 157.01 286.17 161.56C280.9 166.12 273.51 169 271 175.5C269.11 180.4 270.62 186.14 268.59 190.98C267.14 194.46 264.08 196.96 262 200.09Z" fill="#EBEBEB"/>
<path d="M286.86 205.63C284.71 205.93 282.17 204.87 280.53 206.3C279.58 207.13 279.36 208.5 278.99 209.71C278.46 211.39 277.46 212.98 275.94 213.87C274.43 214.77 272.37 214.84 270.96 213.78C269.56 212.72 269.13 210.45 270.28 209.12C270.8 208.51 271.55 208.15 272.14 207.6C275 204.9 273.04 199.9 275.21 196.69C276.49 194.8 278.51 192.88 279.91 190.96C280.99 189.49 281.39 188.32 283.38 187.93C292.08 186.22 296.01 204.35 286.86 205.63Z" fill="#EBEBEB"/>
<g opacity="0.6">
<path d="M129.36 245.19C130.48 245.95 131.62 246.69 132.77 247.41C133.57 247.92 134.38 248.4 135.2 248.89C134.38 248.4 133.57 247.92 132.77 247.41C131.62 246.68 130.48 245.94 129.36 245.19Z" fill="#263238"/>
</g>
<g opacity="0.6">
<path d="M70.3202 128.75V128.73V128.75C70.3002 129 70.2802 129.24 70.2802 129.49C70.2502 130.28 70.2502 131.09 70.2402 131.9C70.2502 131.09 70.2502 130.28 70.2802 129.49C70.2702 129.24 70.3002 129.01 70.3202 128.75Z" fill="#263238"/>
</g>
<path d="M87.6205 169.4C87.2005 165.58 88.4705 161.75 88.5305 157.89C88.5705 155.23 88.3805 152.42 88.3405 149.74C86.0605 149.63 83.7805 149.32 81.5605 148.79C81.0905 148.68 80.5905 148.54 80.3105 148.16C80.0105 147.76 80.0605 147.23 80.0305 146.74C79.8605 143.74 76.9705 141.75 74.3705 140.25C73.0405 139.47 71.6905 138.71 70.2505 138.22C70.2505 138.54 70.2505 138.83 70.2705 139.15C70.8005 154 73.7605 168.26 78.7605 181.51C81.0405 187.55 83.7705 193.4 86.9205 199C88.2305 201.43 89.6705 203.82 91.1705 206.16C93.0305 209.05 94.9705 211.89 97.0605 214.61C99.0005 217.23 101.07 219.79 103.25 222.24C106.23 225.64 109.38 228.87 112.69 231.96C115.63 234.71 118.69 237.31 121.88 239.78C114.59 220.22 107.72 200.25 95.2605 183.6C91.9905 179.25 88.2305 174.81 87.6205 169.4Z" fill="#EBEBEB"/>
<path d="M88.5703 144.56C88.3003 144.52 88.0403 144.48 87.7703 144.43C85.4203 144.18 82.6802 144.05 81.3902 142.11C79.8902 139.85 81.3702 136.49 79.8302 134.27C79.0302 133.11 77.6302 132.6 76.4902 131.78C75.3502 130.98 74.3802 129.46 75.0702 128.23C75.6402 127.2 77.1202 126.98 77.8602 126.03C78.4502 125.27 78.4303 124.11 77.8203 123.39C75.4103 120.54 72.7302 126.35 71.4002 127.72C71.0202 128.12 70.6602 128.46 70.3202 128.73V128.75C70.3002 129 70.2802 129.24 70.2802 129.49C70.2502 130.28 70.2502 131.09 70.2402 131.9C70.2302 132.71 70.2002 133.51 70.2002 134.31C70.2002 134.96 70.1902 134.93 70.2002 135.58C70.2102 136.23 70.2403 137.57 70.2603 138.21C71.7003 138.7 73.0502 139.46 74.3802 140.24C76.9802 141.74 79.8702 143.73 80.0402 146.73C80.0602 147.22 80.0203 147.74 80.3203 148.15C80.5903 148.53 81.1003 148.68 81.5703 148.78C83.7903 149.31 86.0703 149.62 88.3503 149.73" fill="#EBEBEB"/>
<path d="M88.3402 149.73C88.3802 152.41 88.5702 155.22 88.5302 157.88C88.4702 161.75 87.2001 165.57 87.6201 169.39C88.2301 174.8 91.9902 179.23 95.2702 183.59C107.73 200.24 114.6 220.2 121.89 239.77H121.91C123.26 240.85 124.64 241.86 126.03 242.85C127.13 243.64 128.24 244.42 129.36 245.18C130.48 245.94 131.62 246.68 132.77 247.4C133.57 247.91 134.38 248.39 135.2 248.88C135.09 248.65 134.99 248.44 134.88 248.2C131.94 241.76 131.77 232.46 138.09 229.27C139.29 228.66 140.67 228.32 141.66 227.39C144.47 224.73 142.17 219.23 144.98 216.57C146.56 215.09 149.04 215.2 151 214.31C154.53 212.68 155.67 208.16 155.39 204.27C155.09 200.4 153.83 196.56 154.27 192.69C154.97 186.84 159.53 180.9 156.91 175.62C153.97 169.73 145.42 170.68 139.4 168.04C130.99 164.34 128.39 153.91 122.9 146.53C117.98 139.94 106.48 132.69 97.7402 134.68C91.4002 136.12 89.2302 139.9 88.5702 144.55" fill="#EBEBEB"/>
<path d="M78.5805 95.44C81.0705 93.31 85.3805 93.05 87.3105 95.71C88.6805 97.61 88.3705 100.21 88.0105 102.53C87.5205 105.66 87.0405 108.78 86.5305 111.91C86.3805 112.84 86.2505 113.85 86.6605 114.72C87.5905 116.71 90.8405 116.33 92.0905 114.55C93.3605 112.75 93.2105 110.35 92.8705 108.19C92.5305 106.01 92.0905 103.73 92.9305 101.7C95.0405 96.67 102.54 97.43 106.89 94.16C109.59 92.13 110.8 88.73 112.4 85.75C114.01 82.77 116.69 79.79 120.07 79.94C121.21 79.98 122.33 80.4 123.47 80.36C126.81 80.25 128.75 75.37 126.39 73.01C125.9 72.5 125.25 72.1 124.91 71.49C124.32 70.37 124.95 68.93 125.97 68.17C126.98 67.43 128.27 67.22 129.52 67.03C132.37 66.56 135.22 66.12 138.08 65.68C141.23 65.19 145.26 63.57 144.82 60.42C144.44 57.69 140.74 56.47 140.19 53.77C140.04 53.11 140.13 52.4 139.83 51.78C138.96 50.05 136.37 50.74 134.7 51.67C134.02 49.16 130.43 48.02 128.43 49.66C126.74 51.05 126.53 53.51 125.94 55.6C124.55 60.67 120.51 64.52 116.67 68.09C115.38 69.27 113.92 70.54 112.17 70.63C110.42 70.71 108.58 68.83 109.38 67.29C109.93 66.23 111.45 65.62 111.3 64.44C111.09 62.96 108.51 63.07 108 61.65C109.01 57.47 113.81 55.73 117.49 53.5C121.95 50.8 125.45 46.53 127.19 41.58C127.49 40.8 127.72 39.87 127.32 39.13C126.77 38.07 125.36 37.91 124.15 37.91C121.32 37.87 117.79 38.25 116.76 40.89C116.21 42.31 116.61 43.91 116.27 45.39C115.28 49.78 109.26 50.27 105.58 52.89C104.14 53.9 103.02 55.32 101.44 56.1C99.7305 56.92 97.7205 56.86 95.8205 57.01C95.4805 57.03 95.1405 57.07 94.8105 57.12C93.6505 58.74 92.5305 60.38 91.4505 62.06C90.3705 63.73 89.3305 65.44 88.3305 67.16C83.6005 75.25 79.7105 83.89 76.7505 92.98C75.7105 96.14 74.8005 99.35 74.0105 102.61C73.2205 105.87 72.5505 109.18 72.0005 112.52C73.3105 109.82 73.9005 106.48 74.4105 104.11C75.0705 100.91 76.1105 97.57 78.5805 95.44Z" fill="#EBEBEB"/>
<path d="M336.87 143.1C336.87 143.1 333.51 145.55 331.5 145.51C328.29 145.47 325.65 142.78 324.36 139.83C323.05 136.87 322.75 133.6 321.89 130.49C321.43 128.82 320.64 127.05 319.08 126.31C318.04 125.82 316.82 125.89 315.72 125.55C311.77 124.37 310.69 118.85 306.95 117.14C305.77 116.61 304.46 116.51 303.19 116.36C298.18 115.77 293.01 114.04 289.86 110.11C288.82 108.84 288.04 107.34 286.78 106.31C285.49 105.27 283.51 104.83 282.26 105.89C283.32 108 284.35 110.12 285.39 112.21C286.34 114.11 287.31 116.08 288.9 117.47C290.51 118.89 292.87 119.62 294.79 118.74C295.42 118.44 296.06 117.96 296.78 118.04C297.29 118.1 297.73 118.46 298.07 118.86C300.79 121.88 299.91 126.89 297.25 129.97C294.61 133.03 290.68 134.64 286.9 136.14C285.55 136.67 284.11 137.22 282.67 136.96C280.05 136.47 278.66 133.62 277.9 131.07C276.19 125.41 275.36 119.26 271.86 114.49C270.74 112.99 269.35 111.62 268.67 109.86C267.95 107.96 268.12 105.74 266.98 104.07C265.8 102.32 263.28 101.3 263.11 99.19C263 97.71 264.23 96.4 265.58 95.77C266.93 95.12 268.45 94.93 269.85 94.35C270.4 94.12 271.01 93.72 271.03 93.12C271.03 92.23 269.8 91.87 269.49 91.05C269.15 90.12 270.1 89.25 270.5 88.35C271.37 86.28 269.21 84.19 267.12 83.34C265.05 82.49 262.54 81.88 261.56 79.85C261.12 78.92 261.07 77.84 260.88 76.83C260.39 74.27 258.51 71.8 255.94 71.38C253.34 70.96 250.47 73.26 250.89 75.84C251.14 77.26 252.2 78.35 252.77 79.66C253.36 80.97 253.19 82.91 251.84 83.34C249.62 84.02 247.49 79.96 245.63 81.35C246.39 83.95 247.13 86.55 247.89 89.17C244.97 90.65 241.49 87.97 240.24 84.92C238.99 81.9 238.95 78.43 237.47 75.52C235.99 72.58 232 70.41 229.46 72.48C229.33 76.24 234.3 77.76 236.5 80.8C238.08 83 237.85 86.57 235.51 87.96C233.19 89.35 229.49 86.92 230.38 84.37C230.7 83.48 231.44 82.74 231.52 81.79C231.6 80.61 230.61 79.66 229.7 78.9C228.28 77.7 226.87 76.51 225.45 75.33C224.54 74.57 223.57 73.77 222.43 73.43C219.51 72.59 216.6 74.95 215.06 77.55C213.52 80.17 212.65 83.23 210.52 85.41C207.46 88.58 201.65 88.77 198.77 85.45C195.88 82.13 197.35 75.92 201.6 74.72C203.21 74.28 205.23 74.32 206.08 72.9C207.56 70.39 203.33 67.17 204.79 64.64C205.91 62.7 208.87 63.58 211.02 62.93C213.15 62.28 214.36 60.12 215.63 58.26C216.88 56.42 218.84 54.56 221.04 55.05C220.87 53.76 220.7 52.37 221.27 51.21C221.84 50.03 223.45 49.27 224.5 50.03C223.42 51.8 224.71 54.28 226.59 55.16C228.47 56.05 230.67 55.84 232.74 55.6C234.81 55.35 237.41 54.59 237.58 52.52C237.64 51.84 237.39 51.13 237.64 50.49C238.55 48.02 243.11 51.42 244.87 49.43C245.88 48.39 244.76 46.56 243.35 46.22C241.96 45.86 240.5 46.39 239.06 46.43C237.62 46.49 235.87 45.73 235.81 44.3C235.75 42.88 237.33 41.87 237.5 40.48C237.77 38.11 233.76 37.5 232.34 39.42C230.95 41.34 231.43 43.98 231.85 46.33C232.29 48.68 232.5 51.44 230.77 53.09C230.03 54.21 228.11 53.62 227.47 52.44C226.81 51.26 226.96 49.82 226.86 48.49C226.75 47.14 226.16 45.62 224.85 45.26C223.94 45.01 222.97 45.45 222.04 45.58C218.36 46.02 215.81 41.27 216.97 37.76C218.11 34.23 221.45 31.97 224.68 30.18C227.05 28.87 229.98 27.64 232.33 28.98C233.43 29.59 234.19 30.65 235.27 31.28C237.13 32.38 239.43 31.98 241.57 32.02C244.93 32.1 248.25 33.39 250.76 35.59C251.71 36.46 252.6 37.89 251.86 38.93C251.06 40.03 248.75 40.26 249.16 41.55C251.65 42.37 254.63 40.45 254.91 37.85C256.14 38.4 257.02 39.65 257.13 40.98C259.81 38.25 264.97 38.66 267.17 41.8C267.76 42.62 268.18 43.62 269.03 44.19C269.88 44.74 271.35 44.46 271.46 43.47C271.5 43.15 271.4 42.84 271.29 42.54C270.78 41.1 270.25 39.69 269.75 38.27C271.71 37.21 274.04 38.86 275.37 40.64C280.31 47.25 283.84 43.28 290.81 44.36C295.52 45.08 297.59 48.1 300.25 51.75C308.4 62.99 319.18 72.2 326.6 83.95C327.38 85.18 328.1 86.42 328.78 87.69C328.78 87.71 328.78 87.71 328.78 87.71C329.41 89.4 330.01 91.1 330.57 92.81C331.13 94.52 331.66 96.25 332.16 97.99C333.44 102.52 334.57 106.39 335.36 111.09C335.36 111.09 336.29 118.64 336.51 121.1C336.68 122.98 336.85 124.87 336.95 126.76C337.05 128.66 337.11 130.56 337.12 132.49L336.87 143.1Z" fill="#EBEBEB"/>
<path d="M337.68 134.31C337.68 134.31 337.64 133.57 337.6 132.14C337.58 131.42 337.55 130.53 337.52 129.46C337.49 128.4 337.47 127.16 337.33 125.76C337.22 124.36 337.1 122.8 336.96 121.07C336.78 119.35 336.51 117.48 336.26 115.44C335.69 111.38 334.8 106.73 333.54 101.56C332.18 96.4199 330.52 90.7199 328.05 84.7299C325.63 78.7299 322.65 72.3299 318.73 65.8599C310.98 52.9099 299.87 39.3599 284.71 27.7999C277.17 22.0099 268.59 16.8099 259.14 12.5099C249.69 8.21994 239.37 4.76995 228.36 2.78995C217.37 0.759946 205.73 -0.0400544 193.85 0.879946C187.9 1.22995 181.92 2.19994 175.92 3.38994C169.93 4.66994 163.95 6.38995 158.03 8.48995C152.15 10.6999 146.29 13.2199 140.62 16.2699C134.97 19.3499 129.42 22.7899 124.14 26.7099C118.87 30.6599 113.82 34.9899 109.04 39.7099C104.32 44.4899 99.9001 49.6399 95.8201 55.1399C91.7301 60.6199 88.1401 66.5499 84.9101 72.6999C84.1401 74.2599 83.2701 75.7699 82.5801 77.3799C81.8601 78.9699 81.1401 80.57 80.4201 82.16C79.1301 85.42 77.7901 88.6799 76.7301 92.0499C74.5401 98.7599 72.7201 105.66 71.6301 112.75C70.5101 119.82 69.9301 127.03 69.8801 134.28C69.9301 141.54 70.5101 148.74 71.6301 155.82C72.7201 162.91 74.5301 169.81 76.7201 176.53L77.5701 179.04L77.9901 180.29L78.4701 181.52C79.1201 183.16 79.7601 184.79 80.4001 186.42C81.1201 188.02 81.8401 189.61 82.5601 191.2C83.2501 192.81 84.1201 194.32 84.8901 195.88C88.1201 202.03 91.7101 207.96 95.8001 213.45C99.8701 218.95 104.3 224.1 109.02 228.88C113.8 233.6 118.85 237.94 124.12 241.89C129.41 245.81 134.96 249.25 140.61 252.33C146.28 255.38 152.14 257.9 158.02 260.12C163.95 262.22 169.92 263.94 175.91 265.22C181.92 266.41 187.9 267.37 193.85 267.73C205.73 268.66 217.37 267.85 228.36 265.82C239.37 263.83 249.7 260.39 259.14 256.1C268.59 251.8 277.17 246.6 284.71 240.81C299.86 229.25 310.98 215.7 318.72 202.75C322.64 196.28 325.62 189.88 328.04 183.88C330.51 177.89 332.17 172.19 333.53 167.05C334.8 161.88 335.68 157.23 336.25 153.17C336.5 151.14 336.78 149.26 336.95 147.54C337.09 145.82 337.21 144.25 337.32 142.85C337.46 141.45 337.48 140.22 337.51 139.15C337.54 138.09 337.57 137.19 337.59 136.47C337.65 135.05 337.68 134.31 337.68 134.31C337.68 134.31 337.68 135.05 337.65 136.48C337.64 137.2 337.62 138.09 337.6 139.16C337.58 140.23 337.56 141.46 337.44 142.86C337.34 144.26 337.22 145.82 337.1 147.55C336.93 149.27 336.66 151.15 336.42 153.19C335.86 157.25 335 161.91 333.74 167.1C332.39 172.25 330.74 177.96 328.28 183.97C325.87 189.99 322.9 196.41 318.98 202.9C311.24 215.89 300.12 229.49 284.94 241.1C277.38 246.92 268.79 252.15 259.31 256.46C249.84 260.77 239.49 264.24 228.44 266.24C217.41 268.29 205.74 269.1 193.82 268.18C187.85 267.83 181.85 266.87 175.82 265.68C169.81 264.4 163.81 262.68 157.86 260.57C151.95 258.35 146.07 255.83 140.38 252.76C134.71 249.67 129.14 246.22 123.83 242.29C118.54 238.33 113.47 233.98 108.67 229.24C103.93 224.44 99.4901 219.27 95.4001 213.75C91.2901 208.25 87.6901 202.3 84.4401 196.12C83.6701 194.55 82.7901 193.03 82.1001 191.42C81.3801 189.82 80.6501 188.22 79.9301 186.62C79.2801 184.98 78.6401 183.34 77.9901 181.7L77.5001 180.47L77.0701 179.21L76.2201 176.69C74.0201 169.95 72.2001 163.02 71.1001 155.9C69.9801 148.8 69.4001 141.56 69.3501 134.28C69.4001 127 69.9901 119.77 71.1101 112.67C72.2001 105.56 74.0201 98.6299 76.2301 91.8899C77.3001 88.5099 78.6401 85.2399 79.9401 81.9699C80.6601 80.3699 81.3901 78.7699 82.1101 77.1699C82.8001 75.5599 83.6801 74.0399 84.4501 72.4699C87.7001 66.2899 91.3001 60.3499 95.4101 54.8499C99.5001 49.3399 103.94 44.1699 108.68 39.3699C113.48 34.6299 118.55 30.2799 123.84 26.3199C129.15 22.3899 134.72 18.9399 140.39 15.8499C146.08 12.7899 151.96 10.2599 157.87 8.04994C163.82 5.93994 169.81 4.21994 175.83 2.93994C181.86 1.74994 187.86 0.789943 193.83 0.439943C205.75 -0.480057 217.43 0.329946 228.45 2.37995C239.5 4.37995 249.85 7.84994 259.32 12.1599C268.8 16.4799 277.39 21.6999 284.95 27.5199C300.13 39.1299 311.25 52.7299 318.99 65.7199C322.91 72.2099 325.88 78.6299 328.29 84.6499C330.75 90.6599 332.4 96.37 333.75 101.52C335.01 106.7 335.88 111.36 336.43 115.43C336.67 117.47 336.94 119.34 337.11 121.07C337.24 122.8 337.35 124.36 337.45 125.76C337.58 127.16 337.6 128.39 337.61 129.46C337.63 130.52 337.65 131.42 337.66 132.14C337.68 133.57 337.68 134.31 337.68 134.31Z" fill="#263238"/>
<path d="M178.01 83.83L177.26 48.33L165.16 54.55L160.04 75.9L178.01 83.83Z" fill="#263238"/>
<path d="M164.16 100.05L151.51 106.4L146.73 105.85L155.07 99.27L163.27 97.63L164.16 100.05Z" fill="#263238"/>
<path d="M78.0698 78.6899L30.5498 115.59L84.0198 81.1599L78.0698 78.6899Z" fill="#E0E0E0"/>
<path d="M107.75 88.6499C107.03 89.0099 38.1298 116.43 38.1298 116.43L30.5498 115.59L82.8598 78.4299L107.75 88.6499Z" fill="#263238"/>
<path d="M87.6298 94.82L93.3998 97.17C94.4298 97.59 95.6098 97.09 96.0298 96.06L96.0598 95.98C96.4798 94.95 95.9898 93.77 94.9498 93.35L89.1798 91C88.1498 90.58 86.9698 91.07 86.5498 92.11L86.5198 92.19C86.0998 93.22 86.5898 94.4 87.6298 94.82Z" fill="#455A64"/>
<path d="M54.6597 110.54L60.4297 112.89C61.4597 113.31 62.6397 112.81 63.0597 111.78L63.0897 111.7C63.5097 110.67 63.0197 109.49 61.9797 109.07L56.2097 106.72C55.1797 106.3 53.9997 106.79 53.5797 107.83L53.5497 107.91C53.1297 108.94 53.6297 110.12 54.6597 110.54Z" fill="#455A64"/>
<path d="M63.92 83.08C63.92 83.08 84.65 85.94 81.75 96.81C78.85 107.68 58.39 96.23 58.39 96.23C58.39 96.23 55.36 94.49 56.52 88.69C57.69 82.9 63.92 83.08 63.92 83.08Z" fill="#FF725E"/>
<path d="M58.2798 88.34C58.7198 86.98 59.3598 85.62 60.4898 84.76C61.6198 83.89 63.3598 83.68 64.4398 84.61L65.0198 84.97C66.5198 86.54 67.0098 89.01 66.1998 91.03C66.2698 90.81 66.3398 90.59 66.4098 90.37C66.0098 92.58 64.7398 94.61 62.9298 95.94C62.4398 96.3 61.8898 96.62 61.2798 96.66C60.5198 96.72 59.7798 96.33 59.2298 95.8C58.2698 94.88 57.7798 93.56 57.6898 92.24C57.5898 90.92 57.8698 89.6 58.2798 88.34Z" fill="#263238"/>
<path d="M188.91 88.6701C188.91 88.6701 197.38 97.1401 181.27 99.2001C165.16 101.26 137.29 100.23 105.91 89.5001C74.5299 78.7601 46.5898 63.7101 41.6998 59.7701C38.0698 56.8401 32.2498 51.8401 34.3298 44.6701C35.4098 40.9601 38.3298 38.0801 41.9598 36.7401C46.6798 35.0001 54.7198 33.0601 63.5898 35.4101C77.6198 39.1101 188.91 88.6701 188.91 88.6701Z" fill="white"/>
<path d="M188.91 88.67C188.91 88.67 188.62 88.56 188.07 88.32C187.51 88.08 186.69 87.72 185.62 87.26C183.45 86.31 180.28 84.93 176.2 83.14C168.01 79.56 156.18 74.39 141.56 68C126.92 61.64 109.48 54.08 90.0196 45.93C85.1496 43.91 80.1496 41.84 75.0196 39.82C72.4596 38.77 69.8396 37.84 67.2096 36.83C65.8696 36.41 64.5496 35.93 63.1896 35.55C61.8196 35.21 60.4196 34.95 59.0096 34.78C53.3496 34.13 47.4396 34.95 41.9296 37.01C39.2196 38.04 36.8196 40.03 35.4496 42.63C34.0596 45.22 33.7696 48.42 34.8596 51.19C35.9296 53.99 38.0396 56.25 40.2696 58.2C42.4896 60.22 45.0596 61.7 47.6096 63.22C52.7396 66.18 57.9296 68.86 63.0796 71.38C73.3896 76.42 83.5596 80.83 93.3896 84.64C103.22 88.46 112.73 91.66 121.82 93.96C130.9 96.31 139.53 97.78 147.44 98.72C155.36 99.66 162.58 99.97 168.91 99.86C172.08 99.84 175.02 99.64 177.72 99.43C180.42 99.17 182.89 98.93 185.04 98.37C187.17 97.8 189.08 97.02 190.17 95.7C190.71 95.05 191 94.29 191.05 93.58C191.09 92.87 190.95 92.22 190.76 91.67C190.36 90.57 189.83 89.83 189.47 89.35C189.12 88.9 188.91 88.67 188.91 88.67C188.91 88.67 189.15 88.87 189.52 89.34C189.89 89.81 190.44 90.54 190.86 91.65C191.06 92.2 191.22 92.86 191.18 93.6C191.13 94.34 190.84 95.13 190.29 95.81C189.17 97.19 187.23 97.99 185.09 98.58C182.92 99.16 180.44 99.42 177.74 99.7C175.03 99.93 172.08 100.14 168.91 100.17C162.57 100.3 155.33 100.02 147.39 99.1C139.46 98.19 130.81 96.73 121.7 94.4C112.59 92.11 103.05 88.92 93.1996 85.11C83.3496 81.3 73.1596 76.9 62.8396 71.86C57.6796 69.33 52.4796 66.65 47.3296 63.69C44.7896 62.19 42.1496 60.66 39.9096 58.62C37.6396 56.64 35.4696 54.33 34.3496 51.4C33.2096 48.49 33.5096 45.11 34.9696 42.41C36.4096 39.68 38.9096 37.62 41.7296 36.55C47.3196 34.46 53.2996 33.64 59.0596 34.3C60.4996 34.47 61.9196 34.73 63.3096 35.08C64.6896 35.47 66.0296 35.95 67.3796 36.37C70.0096 37.38 72.6496 38.32 75.1996 39.37C80.3396 41.4 85.3296 43.48 90.2096 45.5C109.67 53.67 127.09 61.27 141.72 67.67C156.31 74.12 168.12 79.34 176.3 82.96C180.36 84.78 183.52 86.2 185.68 87.17C186.74 87.65 187.55 88.02 188.11 88.28C188.64 88.53 188.91 88.67 188.91 88.67Z" fill="#263238"/>
<path d="M162.51 79.77V83.08L139.75 73.27L143.24 71.37L162.51 79.77Z" fill="#263238"/>
<path d="M160.74 77.92V83.56L158.66 82.65V76.88L160.74 77.92Z" fill="white"/>
<path d="M156.36 75.53V81.16L154.29 80.26V74.49L156.36 75.53Z" fill="white"/>
<path d="M151.99 73.8499V79.4899L149.91 78.5899V72.8099L151.99 73.8499Z" fill="white"/>
<path d="M143.38 70.38V76.02L141.31 75.11V69.34L143.38 70.38Z" fill="white"/>
<path d="M232.02 23.05L134.46 76.15L112.52 65.62L220.31 22.12L232.02 23.05Z" fill="#263238"/>
<path d="M116.64 56.99L220.31 22.12L112.52 65.62" fill="white"/>
<path d="M112.52 65.62C112.52 65.62 112.7 65.53 113.05 65.38C113.42 65.22 113.95 65 114.63 64.72C116.04 64.14 118.08 63.3 120.71 62.21C126.01 60.05 133.66 56.93 143.1 53.08C162.04 45.41 188.17 34.84 217.03 23.16C218.12 22.72 219.21 22.28 220.22 21.87L220.4 22.36C191.6 32.02 165.68 40.71 146.94 46.99C137.58 50.1 130.02 52.62 124.78 54.36C122.18 55.21 120.15 55.88 118.76 56.34C118.08 56.56 117.56 56.72 117.19 56.84C116.84 56.95 116.65 56.99 116.65 56.99C116.65 56.99 116.82 56.91 117.17 56.79C117.54 56.66 118.05 56.48 118.72 56.24C120.11 55.76 122.12 55.07 124.71 54.17C129.94 52.39 137.49 49.82 146.82 46.65C165.55 40.33 191.45 31.59 220.23 21.87L220.41 22.36C219.4 22.77 218.31 23.21 217.22 23.65C188.33 35.28 162.18 45.8 143.23 53.43C133.77 57.21 126.1 60.28 120.78 62.4C118.14 63.44 116.08 64.26 114.67 64.82C113.98 65.09 113.45 65.29 113.08 65.44C112.71 65.57 112.52 65.62 112.52 65.62Z" fill="#263238"/>
<path d="M180.57 48.28L185.59 51.98C186.49 52.64 187.75 52.45 188.42 51.55L188.47 51.48C189.13 50.58 188.94 49.32 188.04 48.65L183.02 44.95C182.12 44.29 180.86 44.48 180.19 45.38L180.14 45.45C179.48 46.35 179.67 47.61 180.57 48.28Z" fill="#455A64"/>
<path d="M220.9 73.8699C220.57 74.0899 189.88 89.8799 189.88 89.8799L183.18 86.1299L212.57 73.4299L220.9 73.8699Z" fill="#263238"/>
<path d="M212.02 73.42H209.91L179.58 84.53L183.18 86.12L212.02 73.42Z" fill="white"/>
<path d="M113.16 58.38L110.31 60.53L64.73 41.06L65.25 37.85L113.16 58.38Z" fill="#263238"/>
<path d="M110.63 55.83V61.47L108.56 60.56V54.79L110.63 55.83Z" fill="white"/>
<path d="M105.98 53.7199V59.3599L103.9 58.4599V52.6799L105.98 53.7199Z" fill="white"/>
<path d="M101.33 51.61V57.25L99.25 56.35V50.58L101.33 51.61Z" fill="white"/>
<path d="M96.6696 49.5V55.14L94.5996 54.24V48.47L96.6696 49.5Z" fill="white"/>
<path d="M92.0197 47.39V53.03L89.9497 52.13V46.36L92.0197 47.39Z" fill="white"/>
<path d="M87.3698 45.29V50.92L85.2998 50.02V44.25L87.3698 45.29Z" fill="white"/>
<path d="M82.7197 43.55V49.19L80.6396 48.29V42.52L82.7197 43.55Z" fill="white"/>
<path d="M147.77 72.1099V77.7499L145.69 76.8499V71.0699L147.77 72.1099Z" fill="white"/>
<path d="M78.0698 41.57V47.21L75.9897 46.31V40.53L78.0698 41.57Z" fill="white"/>
<path d="M73.3498 39.71V45.35L71.2798 44.44V38.67L73.3498 39.71Z" fill="white"/>
<path d="M68.6396 37.8499V43.4899L66.5596 42.5799V36.8099L68.6396 37.8499Z" fill="white"/>
<path d="M54.4797 38.27C54.4797 38.27 46.6797 35.97 41.9497 36.73C43.4797 36.08 44.9797 35.59 46.4097 35.37C46.4097 35.37 49.3497 34.31 55.1997 35.88L54.4797 38.27Z" fill="#263238"/>
<path d="M146.73 105.85L152.54 99.4501L155.33 99.6701L146.73 105.85Z" fill="#E0E0E0"/>
<path d="M146.55 106L146.71 105.82L152.53 99.42H152.54L155.39 99.64L155.33 99.68L146.55 106ZM152.55 99.48L146.91 105.69L155.26 99.69L152.55 99.48Z" fill="#263238"/>
<path d="M160.17 59.17L165.19 62.87C166.09 63.53 167.35 63.34 168.02 62.44L168.07 62.37C168.73 61.47 168.54 60.21 167.64 59.54L162.62 55.84C161.72 55.18 160.46 55.37 159.79 56.27L159.74 56.34C159.09 57.24 159.28 58.5 160.17 59.17Z" fill="#455A64"/>
<path d="M202.17 36.68L207.19 40.38C208.09 41.04 209.35 40.85 210.02 39.95L210.07 39.88C210.73 38.98 210.54 37.72 209.64 37.05L204.62 33.35C203.72 32.69 202.46 32.88 201.79 33.78L201.74 33.85C201.08 34.75 201.27 36.01 202.17 36.68Z" fill="#455A64"/>
<path d="M142.09 46.06C142.09 46.06 162.05 52.37 157.36 62.6C152.67 72.83 134.43 58.1 134.43 58.1C134.43 58.1 131.74 55.88 133.86 50.35C135.98 44.83 142.09 46.06 142.09 46.06Z" fill="#FF725E"/>
<path d="M135.64 50.29C136.3 49.03 137.16 47.79 138.42 47.13C139.68 46.47 141.43 46.55 142.34 47.65L142.85 48.11C144.07 49.91 144.13 52.43 142.99 54.29C143.1 54.09 143.2 53.88 143.31 53.68C142.54 55.79 140.95 57.58 138.94 58.58C138.4 58.85 137.8 59.07 137.19 59.02C136.43 58.95 135.77 58.44 135.31 57.82C134.52 56.76 134.26 55.3701 134.39 54.0501C134.53 52.7201 135.03 51.47 135.64 50.29Z" fill="#263238"/>
<g opacity="0.1">
<path d="M48.6297 50.4899C51.4497 49.6999 53.9697 51.1799 56.2997 52.5799C92.9297 74.6599 133.93 92.2899 176.66 92.1899C177.64 92.1899 178.52 92.7699 178.9 93.6799C179.54 95.2299 178.44 96.9299 176.77 96.9999C131.22 99.0599 85.0797 84.9399 48.5097 57.6799C47.1297 56.6499 45.6497 55.4299 45.8797 53.5099C46.0497 52.0499 47.1997 50.8999 48.6297 50.4899Z" fill="black"/>
</g>
<path d="M114.14 158.86C114.14 152.79 108.65 147.99 102.36 149.17C98.3998 149.91 95.2498 153.14 94.5598 157.11C94.1298 159.59 94.6398 161.92 95.7698 163.84H95.7598L95.7898 163.88C96.1698 164.52 96.6398 164.97 97.1198 165.64L102.85 173.23C103.56 174.17 104.98 174.17 105.69 173.23L111.32 165.77C111.32 165.77 112.37 164.52 112.75 163.87L112.77 163.84C113.64 162.38 114.14 160.68 114.14 158.86ZM104.27 163.15C101.87 163.15 99.9298 161.21 99.9298 158.81C99.9298 156.41 101.87 154.47 104.27 154.47C106.67 154.47 108.61 156.41 108.61 158.81C108.61 161.21 106.67 163.15 104.27 163.15Z" fill="#FF725E"/>
<path d="M336.5 72.1201C336.5 58.6301 324.31 47.98 310.34 50.6C301.55 52.25 294.55 59.4201 293.01 68.2301C292.05 73.7301 293.18 78.9101 295.7 83.1901H295.69L295.75 83.2701C296.59 84.6901 297.64 85.7001 298.71 87.1901L311.43 104.05C313.01 106.15 316.16 106.15 317.75 104.05L330.26 87.4701C330.26 87.4701 332.6 84.69 333.44 83.25L333.49 83.1901H333.48C335.39 79.9401 336.5 76.1601 336.5 72.1201ZM314.59 81.6601C309.26 81.6601 304.95 77.34 304.95 72.02C304.95 66.69 309.27 62.38 314.59 62.38C319.92 62.38 324.23 66.7 324.23 72.02C324.23 77.34 319.91 81.6601 314.59 81.6601Z" fill="#FF725E"/>
<path d="M38.1401 245.16L50.6601 270.19L106.11 316.79L119.74 299.04L65.3001 253.6L38.1401 245.16Z" fill="#FF725E"/>
<g opacity="0.7">
<path d="M65.3001 253.6C65.1901 254.71 64.2801 255.53 63.2201 255.2C64.4401 256.87 64.4601 259.32 63.2701 261.01C62.0801 262.7 59.7701 263.5 57.7801 262.92C58.3101 264.9 57.7001 267.13 56.2401 268.57C54.7801 270 52.5301 270.57 50.5701 270.01L38.1401 245.17L65.3001 253.6Z" fill="white"/>
</g>
<path d="M43.1801 255.23C43.1801 255.23 48.4601 256.14 49.2701 248.62L38.1401 245.16L43.1801 255.23Z" fill="#FF725E"/>
<g opacity="0.3">
<path d="M57.7803 262.91L112.37 308.1L106.1 316.79L50.6603 270.19L50.5703 270C50.5703 270 51.7103 270.39 53.1203 270.14C54.0703 269.97 55.1903 269.53 56.1203 268.67C57.3203 267.57 57.8203 266.21 57.9403 265.08C58.0803 263.86 57.7803 262.91 57.7803 262.91Z" fill="black"/>
</g>
<g opacity="0.3">
<path d="M63.2202 255.2L117.99 301.32L119.74 299.04L65.3002 253.6C65.3002 253.6 65.2102 255.22 63.6202 255.28C63.5002 255.28 63.3602 255.22 63.2202 255.2Z" fill="black"/>
</g>
<path d="M51.75 261.66C51.76 261.65 51.8 261.78 52 261.83C52.19 261.88 52.57 261.81 52.7 261.43C52.83 261.07 52.8 260.55 52.64 260.02C52.55 259.76 52.4 259.49 52.14 259.31C51.89 259.13 51.54 259.03 51.23 259.16C50.91 259.28 50.69 259.61 50.56 259.96C50.43 260.32 50.38 260.72 50.35 261.14C50.31 261.97 50.39 262.88 50.72 263.75C50.89 264.17 51.19 264.59 51.64 264.74C52.08 264.89 52.61 264.75 52.99 264.44C53.75 263.78 54.01 262.65 54.04 261.6C54.07 259.44 52.83 257.42 51.16 256.61C50.74 256.42 50.26 256.43 49.88 256.64C49.5 256.84 49.2 257.17 48.97 257.51C48.51 258.2 48.21 258.93 48.01 259.61C47.61 260.98 47.65 262.16 47.74 262.95C47.79 263.35 47.85 263.65 47.9 263.86C47.95 264.06 47.97 264.17 47.97 264.17C47.97 264.17 47.81 263.75 47.68 262.96C47.57 262.17 47.52 260.98 47.91 259.58C48.11 258.89 48.4 258.15 48.87 257.43C49.11 257.08 49.41 256.73 49.83 256.51C50.24 256.28 50.78 256.27 51.22 256.47C52.97 257.31 54.23 259.38 54.2 261.6C54.19 262.15 54.1 262.7 53.94 263.21C53.77 263.72 53.51 264.22 53.09 264.56C52.68 264.89 52.11 265.06 51.6 264.88C51.09 264.7 50.78 264.24 50.6 263.8C50.26 262.89 50.18 261.97 50.23 261.13C50.26 260.71 50.31 260.29 50.45 259.92C50.59 259.55 50.83 259.2 51.19 259.06C51.55 258.92 51.94 259.04 52.2 259.24C52.47 259.44 52.63 259.73 52.72 260C52.88 260.55 52.91 261.07 52.76 261.46C52.6 261.87 52.18 261.94 51.99 261.87C51.78 261.79 51.75 261.65 51.75 261.66Z" fill="white"/>
<path d="M53.9999 250.34C54.0199 250.35 53.8799 250.64 53.7699 251.19C53.6599 251.75 53.6299 252.58 53.8499 253.58C54.0499 254.58 54.5199 255.7 55.0999 256.92C55.6599 258.14 56.3399 259.51 56.4999 261.09C56.6699 262.66 56.2999 264.19 55.6699 265.39C55.0299 266.61 54.1199 267.48 53.2699 268.05C52.4099 268.62 51.6099 268.91 51.0599 269.05C50.4999 269.19 50.1899 269.21 50.1899 269.21C50.1899 269.2 50.2699 269.19 50.4099 269.15C50.5599 269.12 50.7699 269.07 51.0499 268.99C51.5899 268.83 52.3699 268.53 53.2099 267.95C54.0399 267.37 54.9299 266.51 55.5499 265.31C56.1699 264.13 56.5199 262.63 56.3599 261.09C56.1999 259.55 55.5299 258.19 54.9799 256.96C54.4099 255.74 53.9399 254.59 53.7499 253.58C53.5499 252.57 53.5899 251.72 53.7199 251.16C53.8399 250.62 53.9999 250.34 53.9999 250.34Z" fill="white"/>
<path d="M60.2802 251.94C60.3202 251.96 59.6003 252.21 59.2603 253.21C58.9203 254.19 58.8803 255.66 58.9103 257.25C58.9603 258.84 59.1902 260.28 59.4202 261.3C59.5302 261.81 59.6402 262.22 59.7102 262.5C59.7902 262.78 59.8202 262.94 59.8102 262.94C59.8002 262.94 59.7403 262.79 59.6503 262.51C59.5603 262.23 59.4302 261.82 59.3102 261.31C59.0502 260.29 58.8003 258.85 58.7503 257.24C58.7203 256.44 58.7503 255.67 58.8003 254.98C58.8503 254.29 58.9503 253.66 59.1503 253.16C59.3403 252.66 59.6403 252.32 59.8703 252.14C60.1203 251.98 60.2802 251.94 60.2802 251.94Z" fill="white"/>
<path d="M62.6703 261.67C62.6503 261.68 62.4903 261.37 62.2703 260.84C62.0603 260.31 61.7903 259.54 61.8503 258.65C61.8903 257.75 62.3703 257.01 62.8503 256.68C63.0903 256.51 63.3103 256.42 63.4703 256.38C63.6303 256.34 63.7203 256.34 63.7203 256.35C63.7303 256.38 63.3603 256.41 62.9203 256.76C62.4803 257.09 62.0503 257.79 62.0103 258.65C61.9603 259.5 62.2003 260.26 62.3803 260.79C62.5603 261.33 62.6903 261.66 62.6703 261.67Z" fill="white"/>
<path d="M50.3803 248.91C50.3903 248.91 50.4103 248.95 50.4403 249.03C50.4703 249.11 50.5203 249.23 50.5803 249.39C50.6303 249.55 50.7003 249.75 50.6903 249.99C50.6903 250.24 50.5903 250.5 50.4603 250.77C50.2003 251.31 49.7603 251.88 49.3503 252.53C48.9303 253.19 48.5403 253.95 48.1903 254.78C47.5003 256.44 47.1203 258.04 46.8403 259.19C46.7203 259.69 46.6203 260.14 46.5203 260.55C46.4403 260.87 46.4003 261.05 46.3803 261.05C46.3703 261.05 46.4003 260.87 46.4603 260.54C46.5203 260.21 46.6103 259.74 46.7303 259.16C46.9803 258 47.3503 256.4 48.0503 254.72C48.4003 253.88 48.8003 253.11 49.2303 252.45C49.6603 251.79 50.1003 251.24 50.3603 250.72C50.6803 250.21 50.6303 249.72 50.5203 249.41C50.4303 249.09 50.3703 248.92 50.3803 248.91Z" fill="white"/>
<path d="M165.21 258.5L117.2 282.97L77.9199 205.89L125.93 181.43C130.1 179.31 135.19 180.96 137.32 185.13L168.91 247.13C171.03 251.28 169.38 256.37 165.21 258.5Z" fill="#455A64"/>
<path d="M138.3 242.44C137.48 243.17 136.56 243.8 135.56 244.31C132.41 245.91 128.8 246.15 125.4 244.96C122 243.78 119.21 241.33 117.55 238.06C114.11 231.31 116.6 223.12 123.09 219.81C126.24 218.21 129.85 217.97 133.26 219.16C136.66 220.34 139.45 222.79 141.11 226.06C142.77 229.33 143.12 233.02 142.08 236.47C141.35 238.82 140.05 240.87 138.3 242.44ZM121 222.39C116.91 226.05 115.68 232.32 118.39 237.64C119.94 240.69 122.54 242.97 125.71 244.07C128.87 245.17 132.22 244.95 135.13 243.47C138.05 241.98 140.19 239.4 141.16 236.2C142.13 232.99 141.81 229.55 140.26 226.5C138.71 223.45 136.11 221.17 132.94 220.07C129.78 218.97 126.43 219.19 123.52 220.67C122.59 221.14 121.75 221.72 121 222.39Z" fill="white"/>
<path d="M140.293 225.558L117.43 237.208L117.861 238.054L140.724 226.405L140.293 225.558Z" fill="white"/>
<path d="M123.44 220.203L122.594 220.634L134.627 244.257L135.473 243.826L123.44 220.203Z" fill="white"/>
<path d="M135.41 244.17L134.51 243.85C135.86 240.05 136.41 236.97 136.24 234.15C136.03 230.77 134.3 227 131.92 224.77C129.5 222.5 126.08 221.54 123.07 220.7L123.33 219.78C126.45 220.65 129.99 221.64 132.58 224.08C135.16 226.51 136.97 230.44 137.2 234.1C137.44 237.97 136.29 241.7 135.41 244.17Z" fill="white"/>
<path d="M134.92 244.51C131.74 243.77 128.41 242.75 125.55 240.4C122.72 238.07 120.61 234.29 120.16 230.78C119.71 227.27 121.13 223.46 122.26 220.41L123.15 220.74C122.05 223.7 120.68 227.38 121.1 230.66C121.51 233.9 123.54 237.52 126.15 239.67C128.85 241.9 132.06 242.87 135.13 243.59L134.92 244.51Z" fill="white"/>
<path d="M132.4 223.32C128 227.26 122.37 229.77 116.47 230.36L116.38 229.41C123.33 228.72 129.89 225.26 134.38 219.91L135.11 220.52C134.27 221.53 133.36 222.46 132.4 223.32Z" fill="white"/>
<path d="M142.1 234.77C134.35 235.54 127.55 238.78 123.45 243.66L122.72 243.05C126.98 237.98 134.01 234.61 142.01 233.82L142.1 234.77Z" fill="white"/>
<path d="M121.37 280.98C121.31 281.01 112.5 263.84 101.69 242.63C90.8798 221.41 82.1698 204.19 82.2298 204.16C82.2898 204.13 91.0998 221.3 101.91 242.52C112.72 263.72 121.43 280.95 121.37 280.98Z" fill="#263238"/>
<path d="M157.85 251.1C157.88 251.16 151.23 254.61 143.01 258.8C134.78 262.99 128.08 266.34 128.05 266.28C128.02 266.22 134.66 262.77 142.9 258.58C151.12 254.39 157.81 251.04 157.85 251.1Z" fill="white"/>
<path d="M155.61 255.8C155.64 255.86 150.71 258.43 144.61 261.54C138.5 264.65 133.53 267.13 133.49 267.06C133.46 267 138.38 264.43 144.49 261.31C150.6 258.22 155.58 255.74 155.61 255.8Z" fill="white"/>
<path d="M104.07 211.77C104.54 212.7 104.21 213.6 103.21 214.11L102.57 214.44L103.12 215.51L102.08 216.04L99.9897 211.94L101.67 211.09C102.66 210.57 103.59 210.83 104.07 211.77ZM103.02 212.3C102.83 211.92 102.5 211.81 102.07 212.02L101.49 212.31L102.1 213.51L102.68 213.22C103.11 213.01 103.21 212.68 103.02 212.3Z" fill="white"/>
<path d="M107.76 212.14L106.21 212.93L106.33 213.87L105.27 214.41L104.8 209.48L105.82 208.96L109.53 212.23L108.45 212.78L107.76 212.14ZM107.02 211.44L105.88 210.37L106.08 211.92L107.02 211.44Z" fill="white"/>
<path d="M109.38 211.85L109.28 210.82C109.73 210.89 110.27 210.82 110.7 210.61C111.13 210.39 111.23 210.17 111.13 209.97C110.8 209.32 108.95 210.86 108.18 209.33C107.81 208.6 108.04 207.73 109.13 207.17C109.61 206.93 110.16 206.8 110.64 206.85L110.76 207.87C110.3 207.84 109.9 207.91 109.58 208.07C109.15 208.29 109.07 208.54 109.18 208.74C109.5 209.37 111.34 207.84 112.11 209.35C112.47 210.06 112.25 210.95 111.16 211.5C110.55 211.82 109.86 211.94 109.38 211.85Z" fill="white"/>
<path d="M112.77 210.12L112.67 209.09C113.12 209.16 113.66 209.09 114.09 208.88C114.52 208.66 114.62 208.44 114.52 208.24C114.19 207.59 112.35 209.13 111.57 207.6C111.2 206.87 111.43 206 112.52 205.44C113 205.2 113.55 205.07 114.03 205.12L114.15 206.14C113.69 206.11 113.29 206.18 112.97 206.34C112.54 206.56 112.46 206.81 112.57 207.01C112.89 207.64 114.73 206.11 115.5 207.62C115.86 208.33 115.64 209.22 114.55 209.77C113.95 210.09 113.26 210.21 112.77 210.12Z" fill="white"/>
<path d="M118.6 204.36C119.07 205.29 118.74 206.19 117.74 206.7L117.1 207.03L117.65 208.1L116.61 208.63L114.52 204.53L116.2 203.68C117.2 203.16 118.12 203.42 118.6 204.36ZM117.55 204.9C117.36 204.52 117.03 204.41 116.6 204.62L116.02 204.91L116.63 206.11L117.21 205.82C117.64 205.6 117.74 205.27 117.55 204.9Z" fill="white"/>
<path d="M119.24 204.71C118.61 203.48 119.02 202.14 120.19 201.54C121.36 200.94 122.69 201.4 123.32 202.63C123.95 203.86 123.54 205.2 122.37 205.8C121.19 206.4 119.87 205.94 119.24 204.71ZM122.27 203.16C121.91 202.45 121.24 202.21 120.68 202.49C120.12 202.77 119.93 203.46 120.29 204.17C120.65 204.88 121.32 205.12 121.88 204.84C122.43 204.56 122.63 203.87 122.27 203.16Z" fill="white"/>
<path d="M125.96 202.49L125.39 202.78L125.95 203.87L124.91 204.4L122.82 200.3L124.5 199.45C125.5 198.94 126.43 199.2 126.9 200.14C127.21 200.74 127.17 201.32 126.84 201.8L128.29 202.69L127.18 203.26L125.96 202.49ZM124.9 200.39L124.32 200.68L124.93 201.88L125.51 201.59C125.94 201.37 126.04 201.04 125.85 200.66C125.66 200.29 125.33 200.17 124.9 200.39Z" fill="white"/>
<path d="M127.89 198.87L126.76 199.44L126.29 198.52L129.58 196.85L130.05 197.77L128.93 198.34L130.55 201.52L129.51 202.05L127.89 198.87Z" fill="white"/>
<path d="M151 223.15C151 223.15 151.85 226.77 147.96 227.83C147.96 227.83 147.32 224.05 151 223.15Z" fill="white"/>
<path d="M151.79 228.9C151.79 228.9 151.4 232.13 147.88 231.83C147.88 231.82 148.49 228.52 151.79 228.9Z" fill="white"/>
<path d="M151.09 233.89C151.09 233.89 149.75 237.1 146.23 235.76C146.23 235.76 147.81 232.55 151.09 233.89Z" fill="white"/>
<path d="M144.62 227.36C144.62 227.36 147.88 227.28 148.07 230.81C148.07 230.81 144.72 230.68 144.62 227.36Z" fill="white"/>
<path d="M145.82 231.13C145.82 231.13 148.02 232.23 146.85 234.73C146.85 234.72 144.66 233.45 145.82 231.13Z" fill="white"/>
<path d="M147.79 220.04C147.79 220.04 149.42 222.5 146.81 224.35C146.82 224.36 145.3 221.72 147.79 220.04Z" fill="white"/>
<path d="M142.4 219.46C142.4 219.46 145.17 219.25 145.54 222.43C145.54 222.43 142.67 222.45 142.4 219.46Z" fill="white"/>
<path d="M142.97 223.98C142.97 223.98 146.17 222.79 147.57 226.21C147.57 226.21 144.21 227.23 142.97 223.98Z" fill="white"/>
<path d="M144.52 237.64C144.52 237.64 144.53 237.63 144.55 237.61C144.57 237.59 144.61 237.56 144.65 237.52C144.74 237.44 144.87 237.33 145.02 237.18C145.33 236.88 145.77 236.41 146.21 235.77C146.66 235.13 147.1 234.3 147.44 233.32C147.61 232.83 147.76 232.31 147.87 231.76C147.89 231.62 147.92 231.48 147.94 231.34C147.95 231.27 147.96 231.2 147.98 231.13C147.99 231.06 148 230.99 148 230.91C148.02 230.77 148.03 230.62 148.05 230.47C148.06 230.32 148.06 230.17 148.07 230.03C148.07 229.96 148.08 229.88 148.08 229.81C148.08 229.74 148.08 229.66 148.08 229.59C148.08 229.44 148.08 229.3 148.07 229.15C148.06 229 148.05 228.86 148.04 228.72C148.03 228.65 148.03 228.58 148.02 228.51C148.01 228.44 148 228.37 147.99 228.3C147.97 228.16 147.95 228.02 147.94 227.88C147.91 227.74 147.89 227.61 147.86 227.48C147.85 227.41 147.84 227.35 147.82 227.28C147.81 227.21 147.79 227.15 147.77 227.09C147.74 226.96 147.71 226.83 147.68 226.71C147.42 225.71 147.04 224.85 146.66 224.16C146.29 223.47 145.9 222.96 145.64 222.61C145.5 222.44 145.39 222.31 145.32 222.22C145.28 222.18 145.26 222.14 145.24 222.12C145.22 222.1 145.21 222.08 145.21 222.08C145.21 222.08 145.22 222.09 145.24 222.11C145.26 222.13 145.29 222.17 145.33 222.21C145.41 222.3 145.52 222.42 145.66 222.59C145.93 222.94 146.32 223.44 146.69 224.13C147.07 224.82 147.45 225.68 147.72 226.68C147.75 226.81 147.78 226.93 147.81 227.06C147.82 227.12 147.84 227.19 147.86 227.26C147.87 227.33 147.88 227.39 147.9 227.46C147.92 227.59 147.95 227.73 147.98 227.86C148 228 148.02 228.14 148.03 228.28C148.04 228.35 148.05 228.42 148.06 228.49C148.07 228.56 148.07 228.63 148.08 228.7C148.09 228.84 148.1 228.99 148.11 229.13C148.11 229.28 148.11 229.42 148.12 229.57C148.12 229.64 148.12 229.72 148.12 229.79C148.12 229.86 148.11 229.94 148.11 230.01C148.1 230.16 148.1 230.31 148.09 230.46C148.07 230.61 148.06 230.75 148.04 230.9C148.03 230.97 148.03 231.04 148.02 231.12C148.01 231.19 148 231.26 147.98 231.33C147.96 231.47 147.93 231.61 147.91 231.75C147.8 232.3 147.65 232.83 147.48 233.32C147.13 234.3 146.69 235.13 146.23 235.77C145.78 236.41 145.34 236.88 145.02 237.18C144.86 237.33 144.73 237.44 144.64 237.52C144.6 237.56 144.56 237.58 144.54 237.6C144.53 237.63 144.52 237.64 144.52 237.64Z" fill="white"/>
<path d="M109.45 244.33C109.45 244.33 111.88 247.15 115.02 244.62C115.02 244.61 112.34 241.87 109.45 244.33Z" fill="white"/>
<path d="M113.64 248.34C113.64 248.34 116.48 249.93 118.3 246.9C118.3 246.9 115.27 245.45 113.64 248.34Z" fill="white"/>
<path d="M118.08 250.7C118.08 250.7 121.46 251.5 122.45 247.87C122.46 247.87 118.93 247.26 118.08 250.7Z" fill="white"/>
<path d="M116.61 241.64C116.61 241.64 114.64 244.23 117.37 246.46C117.37 246.46 119.23 243.66 116.61 241.64Z" fill="white"/>
<path d="M118.95 244.82C118.95 244.82 118.54 247.25 121.26 247.77C121.25 247.77 121.51 245.24 118.95 244.82Z" fill="white"/>
<path d="M108.82 239.9C108.82 239.9 109.85 242.66 112.88 241.65C112.89 241.65 111.64 238.87 108.82 239.9Z" fill="white"/>
<path d="M111.52 235.2C111.52 235.2 109.72 237.32 112.08 239.48C112.08 239.48 113.78 237.18 111.52 235.2Z" fill="white"/>
<path d="M114.84 238.31C114.84 238.31 112 240.19 113.94 243.34C113.94 243.35 116.74 241.22 114.84 238.31Z" fill="white"/>
<path d="M124.99 247.59C124.99 247.59 124.97 247.59 124.95 247.6C124.92 247.61 124.88 247.62 124.82 247.63C124.71 247.65 124.54 247.7 124.33 247.73C123.9 247.81 123.27 247.88 122.48 247.86C121.7 247.84 120.77 247.71 119.77 247.42C119.27 247.27 118.76 247.08 118.25 246.85C118.12 246.79 118 246.72 117.87 246.66C117.81 246.63 117.74 246.6 117.68 246.56C117.62 246.53 117.55 246.49 117.49 246.45C117.36 246.38 117.24 246.3 117.11 246.23C116.99 246.15 116.86 246.07 116.74 245.99C116.68 245.95 116.62 245.91 116.55 245.87C116.49 245.83 116.43 245.78 116.37 245.74C116.25 245.65 116.13 245.57 116.02 245.48C115.91 245.39 115.8 245.29 115.69 245.2C115.64 245.15 115.58 245.11 115.53 245.06C115.48 245.01 115.43 244.96 115.38 244.91C115.28 244.81 115.18 244.72 115.08 244.62C114.98 244.52 114.89 244.42 114.8 244.32C114.75 244.27 114.71 244.22 114.66 244.17C114.61 244.12 114.57 244.07 114.53 244.02C114.44 243.92 114.36 243.82 114.28 243.72C113.62 242.92 113.15 242.11 112.82 241.4C112.48 240.69 112.3 240.08 112.17 239.67C112.11 239.46 112.08 239.29 112.05 239.18C112.04 239.13 112.03 239.08 112.02 239.05C112.01 239.02 112.01 239.01 112.01 239.01C112.01 239.01 112.01 239.02 112.02 239.05C112.03 239.08 112.04 239.12 112.05 239.18C112.08 239.29 112.11 239.46 112.17 239.67C112.3 240.09 112.47 240.7 112.81 241.41C113.15 242.12 113.61 242.94 114.27 243.74C114.35 243.84 114.44 243.94 114.52 244.04C114.56 244.09 114.6 244.14 114.65 244.19C114.7 244.24 114.74 244.29 114.79 244.34C114.88 244.44 114.98 244.54 115.07 244.64C115.17 244.74 115.27 244.83 115.38 244.93C115.43 244.98 115.48 245.03 115.53 245.08C115.58 245.13 115.64 245.17 115.69 245.22C115.8 245.31 115.91 245.41 116.02 245.5C116.14 245.59 116.25 245.68 116.37 245.76C116.43 245.8 116.49 245.85 116.55 245.89C116.61 245.93 116.67 245.97 116.74 246.01C116.87 246.09 116.99 246.17 117.11 246.25C117.24 246.32 117.37 246.4 117.49 246.47C117.55 246.51 117.62 246.54 117.68 246.58C117.74 246.61 117.81 246.64 117.87 246.68C118 246.74 118.13 246.81 118.25 246.87C118.76 247.1 119.28 247.3 119.77 247.44C120.77 247.73 121.7 247.86 122.49 247.87C123.28 247.89 123.91 247.8 124.34 247.72C124.56 247.68 124.72 247.64 124.83 247.61C124.89 247.6 124.93 247.59 124.96 247.58C124.97 247.6 124.99 247.59 124.99 247.59Z" fill="white"/>
<path d="M358.4 307.5L356.13 313.2C356.13 313.2 323.04 287.95 297.52 290.1C296.36 291.02 294.67 291.33 293.02 290.92L283.52 288.57C281.48 288.02 279.9 286.48 279.55 284.69C279.55 284.69 260.29 268.77 234.18 271.25L224.45 271.66L265.61 203.47L377.95 221.58L358.4 307.5Z" fill="#455A64"/>
<path d="M367.08 301.3L363.3 311.66C363.3 311.66 332.31 281.23 289.04 287.94L314.97 240.77C314.96 240.77 367.75 289.73 367.08 301.3Z" fill="#EBEBEB"/>
<path d="M398.92 227.86C398.92 227.86 363.8 185.07 317.32 213.47L289.04 287.93C289.04 287.93 340.79 267.17 370.47 304.9L398.92 227.86Z" fill="white"/>
<path d="M398.92 227.86C398.92 227.86 398.77 228.34 398.43 229.27C398.09 230.21 397.59 231.59 396.94 233.38C395.62 237 393.69 242.28 391.23 249.01C386.27 262.51 379.18 281.8 370.66 304.99L370.52 305.36L370.27 305.05C366.32 300.05 361.38 295.43 355.52 291.71C349.65 288.03 342.85 285.34 335.58 283.9C328.31 282.47 320.6 282.15 312.82 282.9C308.93 283.26 305.02 283.87 301.12 284.73C297.23 285.58 293.32 286.64 289.52 288.04C289.38 288.09 289.24 288.15 289.11 288.2L288.56 288.41L288.77 287.87C299.06 260.81 308.75 235.33 317.08 213.42L317.11 213.35L317.18 213.31C322.97 209.77 329 207.13 335 205.54C340.99 203.94 346.93 203.39 352.45 203.68C357.99 203.95 363.1 205.1 367.63 206.64C372.18 208.18 376.16 210.1 379.61 212.08C386.51 216.07 391.29 220.21 394.4 223.13C395.95 224.6 397.08 225.8 397.81 226.62C398.18 227.03 398.45 227.35 398.63 227.57C398.84 227.74 398.92 227.86 398.92 227.86C398.92 227.86 398.82 227.76 398.63 227.55C398.43 227.33 398.15 227.03 397.78 226.63C397.02 225.83 395.89 224.65 394.32 223.2C391.19 220.32 386.39 216.23 379.5 212.28C376.05 210.32 372.07 208.43 367.55 206.91C363.03 205.4 357.95 204.27 352.45 204.02C346.96 203.75 341.07 204.31 335.13 205.91C329.18 207.5 323.2 210.13 317.44 213.66L317.53 213.55C309.21 235.47 299.55 260.95 289.28 288.03L288.94 287.7C289.08 287.65 289.22 287.59 289.36 287.54C293.2 286.13 297.12 285.07 301.03 284.21C304.95 283.35 308.88 282.74 312.79 282.38C320.61 281.63 328.37 281.96 335.7 283.41C343.02 284.87 349.88 287.59 355.8 291.31C361.7 295.07 366.67 299.73 370.64 304.78L370.26 304.84C378.84 281.72 385.98 262.49 390.98 249.02C393.49 242.3 395.46 237.01 396.81 233.4C397.49 231.61 398.01 230.23 398.36 229.28C398.72 228.35 398.92 227.86 398.92 227.86Z" fill="#263238"/>
<path d="M288.6 287.8C288.6 287.8 257.39 255.2 222.74 267.51L253.38 201.09L316.35 216.03L288.6 287.8Z" fill="#F5F5F5"/>
<path d="M288.78 288.72L288.24 288.15C287.93 287.83 256.86 255.92 222.91 267.98L221.79 268.38L253.1 200.52L253.5 200.61L317.02 215.69L316.81 216.23L288.78 288.72ZM238.74 264.26C263.99 264.26 284.8 283.39 288.41 286.91L315.67 216.4L253.66 201.68L223.68 266.66C228.8 264.98 233.86 264.26 238.74 264.26Z" fill="#263238"/>
<path d="M317.32 213.47C317.32 213.47 311 184.39 282.19 177.55L263.58 173.67L231.21 239.89C231.21 239.89 277.72 249.98 289.1 287.47L317.32 213.47Z" fill="white"/>
<path d="M317.32 213.47C317.32 213.47 317.29 213.59 317.21 213.82C317.12 214.06 317 214.4 316.84 214.84C316.5 215.76 316 217.09 315.36 218.82C314.04 222.32 312.12 227.42 309.67 233.91C304.74 246.91 297.71 265.43 289.31 287.57L289.07 288.19L288.87 287.55C287.33 282.5 284.95 277.48 281.79 272.75C281.03 271.55 280.12 270.43 279.28 269.26C278.34 268.16 277.47 266.99 276.45 265.93C274.51 263.72 272.32 261.69 270.05 259.7C260.85 251.84 249.35 245.8 236.87 241.77C234.96 241.17 233.04 240.61 231.14 240.17L230.82 240.1L230.96 239.81C242.87 215.48 253.96 192.82 263.37 173.6L263.45 173.45L263.62 173.49C268.91 174.6 273.97 175.66 278.79 176.67C283.63 177.52 288.14 179.01 292.08 180.94C299.98 184.9 305.47 190.58 309.08 195.7C312.73 200.84 314.68 205.43 315.85 208.57C316.43 210.15 316.8 211.38 317.02 212.22C317.25 213.03 317.32 213.47 317.32 213.47C317.32 213.47 317.28 213.36 317.23 213.15C317.17 212.92 317.08 212.61 316.96 212.21C316.71 211.38 316.32 210.16 315.73 208.59C314.52 205.48 312.54 200.92 308.88 195.82C305.27 190.75 299.78 185.14 291.93 181.24C288 179.33 283.57 177.88 278.72 177.04C273.9 176.04 268.84 174.99 263.55 173.9L263.79 173.78C254.41 193 243.34 215.67 231.45 240.02L231.27 239.65C233.2 240.1 235.12 240.66 237.04 241.26C243.32 243.28 249.33 245.82 254.94 248.83C260.56 251.83 265.76 255.34 270.39 259.3C272.68 261.3 274.88 263.36 276.83 265.59C277.85 266.66 278.73 267.84 279.67 268.95C280.52 270.13 281.43 271.26 282.2 272.47C285.38 277.24 287.76 282.31 289.31 287.4L288.88 287.38C297.35 265.29 304.43 246.81 309.4 233.84C311.9 227.37 313.86 222.28 315.21 218.78C315.89 217.05 316.4 215.72 316.76 214.81C316.94 214.37 317.07 214.03 317.17 213.79C317.26 213.59 317.32 213.47 317.32 213.47Z" fill="#263238"/>
<path d="M270.52 188.65C270.5 188.89 273.45 189.38 277.98 190.93C282.5 192.47 288.54 195.3 294.21 199.62C299.85 203.96 303.86 208.82 306.19 212.53C308.54 216.24 309.48 218.74 309.75 218.68C309.85 218.66 309.69 218.03 309.31 216.89C308.96 215.75 308.23 214.12 307.15 212.17C305.01 208.27 301 203.15 295.17 198.67C289.32 194.2 282.97 191.4 278.27 190.05C275.92 189.37 273.97 188.95 272.63 188.79C271.27 188.61 270.53 188.56 270.52 188.65Z" fill="#E0E0E0"/>
<path d="M265.6 195.74C265.58 195.98 268.53 196.47 273.06 198.02C277.58 199.56 283.62 202.39 289.29 206.71C294.93 211.05 298.94 215.91 301.27 219.62C303.62 223.33 304.56 225.83 304.83 225.77C304.93 225.75 304.77 225.12 304.39 223.98C304.04 222.84 303.31 221.21 302.23 219.26C300.09 215.36 296.08 210.24 290.25 205.76C284.4 201.29 278.05 198.49 273.35 197.14C271 196.46 269.05 196.04 267.71 195.88C266.35 195.7 265.61 195.65 265.6 195.74Z" fill="#E0E0E0"/>
<path d="M262.22 204.13C262.19 204.37 265.15 204.86 269.68 206.41C274.2 207.95 280.24 210.78 285.91 215.1C291.55 219.44 295.56 224.3 297.89 228.01C300.24 231.72 301.18 234.22 301.45 234.16C301.55 234.14 301.39 233.51 301.01 232.37C300.66 231.23 299.93 229.6 298.85 227.65C296.71 223.75 292.7 218.63 286.87 214.15C281.02 209.68 274.67 206.88 269.97 205.53C267.62 204.85 265.67 204.43 264.33 204.27C262.97 204.1 262.23 204.04 262.22 204.13Z" fill="#E0E0E0"/>
<path d="M257.63 211.45C257.6 211.68 260.56 212.18 265.09 213.73C269.61 215.27 275.65 218.1 281.32 222.42C286.96 226.76 290.97 231.62 293.3 235.33C295.65 239.04 296.59 241.54 296.86 241.48C296.96 241.46 296.8 240.83 296.42 239.69C296.07 238.55 295.34 236.92 294.26 234.97C292.12 231.07 288.11 225.95 282.28 221.47C276.43 217 270.08 214.2 265.38 212.85C263.03 212.17 261.08 211.75 259.74 211.59C258.38 211.42 257.64 211.36 257.63 211.45Z" fill="#E0E0E0"/>
<path d="M252.61 219.11C252.58 219.35 255.54 219.84 260.07 221.39C264.59 222.93 270.63 225.76 276.3 230.08C281.94 234.42 285.95 239.28 288.28 242.99C290.63 246.7 291.57 249.2 291.84 249.14C291.94 249.12 291.78 248.49 291.4 247.35C291.05 246.21 290.32 244.58 289.24 242.63C287.1 238.73 283.09 233.61 277.26 229.13C271.41 224.66 265.06 221.86 260.36 220.51C258.01 219.83 256.06 219.41 254.72 219.25C253.36 219.07 252.62 219.02 252.61 219.11Z" fill="#E0E0E0"/>
<path d="M246.57 227.54C246.54 227.78 249.76 228.3 254.67 230.07C257.14 230.9 259.96 232.2 263.03 233.71C266.05 235.32 269.27 237.23 272.44 239.49C275.58 241.78 278.36 244.17 280.71 246.48C282.97 248.84 284.93 251.04 286.26 253.03C289.05 256.97 290.03 259.69 290.31 259.64C290.41 259.62 290.22 258.94 289.78 257.7C289.59 257.07 289.25 256.33 288.8 255.48C288.39 254.62 287.88 253.65 287.18 252.63C285.93 250.53 284.01 248.22 281.74 245.75C279.38 243.34 276.56 240.86 273.34 238.51C270.09 236.19 266.76 234.26 263.63 232.67C260.45 231.17 257.52 229.93 254.95 229.19C253.69 228.76 252.52 228.48 251.49 228.24C250.47 227.98 249.58 227.8 248.84 227.72C247.38 227.52 246.58 227.45 246.57 227.54Z" fill="#E0E0E0"/>
<path d="M243.66 234.93C243.63 235.17 246.87 235.69 251.76 237.54C254.23 238.41 257.02 239.78 260.06 241.37C263.04 243.05 266.21 245.07 269.32 247.42C272.39 249.81 275.09 252.28 277.39 254.64C279.59 257.06 281.5 259.3 282.81 261.32C285.55 265.31 286.55 268.04 286.82 267.99C286.92 267.97 286.73 267.28 286.3 266.04C286.11 265.41 285.77 264.67 285.34 263.81C284.93 262.95 284.44 261.97 283.76 260.94C282.54 258.82 280.67 256.47 278.47 253.95C276.17 251.49 273.43 248.92 270.28 246.48C267.09 244.07 263.82 242.03 260.72 240.36C257.57 238.78 254.65 237.47 252.08 236.69C250.82 236.24 249.65 235.93 248.61 235.69C247.58 235.42 246.69 235.23 245.95 235.14C244.48 234.91 243.67 234.84 243.66 234.93Z" fill="#E0E0E0"/>
<path d="M308.32 272.73C308.48 272.93 311.1 271.41 315.92 269.98C320.7 268.54 327.88 267.42 335.95 268.46C344.02 269.51 351.02 272.47 355.61 275.13C360.25 277.78 362.69 279.97 362.87 279.81C362.94 279.76 362.4 279.15 361.29 278.17C360.18 277.18 358.46 275.84 356.16 274.38C351.6 271.46 344.39 268.24 336.01 267.15C327.63 266.06 320.21 267.39 315.44 269.09C313.03 269.93 311.21 270.82 310.03 271.51C308.84 272.2 308.26 272.66 308.32 272.73Z" fill="#E0E0E0"/>
<path d="M312.23 263.26C312.39 263.46 315.01 261.94 319.83 260.51C324.61 259.07 331.79 257.95 339.86 258.99C347.93 260.04 354.93 263 359.52 265.66C364.16 268.31 366.6 270.5 366.78 270.34C366.85 270.29 366.31 269.68 365.2 268.7C364.09 267.71 362.38 266.37 360.07 264.91C355.51 261.99 348.3 258.77 339.92 257.68C331.54 256.59 324.12 257.92 319.35 259.62C316.94 260.46 315.12 261.35 313.94 262.04C312.75 262.73 312.17 263.19 312.23 263.26Z" fill="#E0E0E0"/>
<path d="M316.13 253.79C316.29 253.99 318.91 252.47 323.73 251.04C328.51 249.6 335.69 248.48 343.76 249.52C351.83 250.57 358.83 253.53 363.41 256.19C368.05 258.84 370.49 261.03 370.67 260.87C370.74 260.82 370.2 260.21 369.09 259.23C367.98 258.24 366.26 256.9 363.96 255.44C359.4 252.52 352.19 249.3 343.81 248.21C335.43 247.12 328.01 248.45 323.24 250.15C320.83 250.99 319.01 251.88 317.83 252.57C316.66 253.26 316.07 253.71 316.13 253.79Z" fill="#E0E0E0"/>
<path d="M320.04 244.31C320.2 244.51 322.82 242.99 327.64 241.56C332.42 240.12 339.6 239 347.67 240.04C355.74 241.09 362.74 244.05 367.33 246.71C371.97 249.36 374.41 251.55 374.59 251.39C374.66 251.34 374.12 250.73 373.01 249.75C371.9 248.76 370.18 247.42 367.88 245.96C363.32 243.04 356.11 239.82 347.73 238.73C339.35 237.64 331.93 238.97 327.16 240.68C324.75 241.52 322.93 242.41 321.75 243.1C320.57 243.79 319.98 244.24 320.04 244.31Z" fill="#E0E0E0"/>
<path d="M323.95 234.84C324.11 235.04 326.73 233.52 331.55 232.09C336.33 230.65 343.51 229.53 351.58 230.57C359.65 231.62 366.65 234.58 371.24 237.24C375.88 239.89 378.32 242.08 378.5 241.92C378.57 241.87 378.03 241.26 376.92 240.28C375.81 239.29 374.09 237.95 371.79 236.49C367.23 233.57 360.02 230.35 351.64 229.26C343.26 228.17 335.84 229.5 331.07 231.2C328.66 232.04 326.84 232.93 325.66 233.62C324.48 234.31 323.89 234.77 323.95 234.84Z" fill="#E0E0E0"/>
<path d="M327.86 225.37C328.02 225.57 330.64 224.05 335.46 222.62C340.24 221.18 347.42 220.06 355.49 221.1C363.56 222.15 370.56 225.11 375.14 227.77C379.78 230.42 382.22 232.61 382.4 232.45C382.47 232.4 381.93 231.79 380.82 230.81C379.71 229.82 377.99 228.48 375.69 227.02C371.13 224.1 363.92 220.88 355.54 219.79C347.16 218.7 339.74 220.03 334.97 221.74C332.56 222.58 330.74 223.47 329.56 224.16C328.38 224.84 327.8 225.3 327.86 225.37Z" fill="#E0E0E0"/>
<path d="M83.6999 426.75H82.8499C78.8699 426.75 75.6499 423.53 75.6499 419.55V379.2C75.6499 375.22 78.8699 372 82.8499 372H83.6999C87.6799 372 90.8999 375.22 90.8999 379.2V419.55C90.8999 423.52 87.6799 426.75 83.6999 426.75Z" fill="#263238"/>
<path d="M136.81 438.12C136.81 438.12 116.93 438.1 108.16 438.12C99.3897 438.14 89.9597 439.12 86.1497 433.95C83.1697 429.9 83.6897 424.56 83.9097 419.72C84.5497 406.1 85.1997 392.48 85.8397 378.86C86.0097 375.17 86.2097 371.4 87.7497 367.95C89.2897 364.5 96.2397 316.77 100.42 315.97H135.84L136.81 438.12Z" fill="#263238"/>
<path d="M129.36 416.29C129.36 416.43 119.87 416.55 108.16 416.55C96.45 416.55 86.96 416.43 86.96 416.29C86.96 416.15 96.45 416.03 108.16 416.03C119.87 416.02 129.36 416.14 129.36 416.29Z" fill="#455A64"/>
<path d="M112.47 360.96C112.61 360.96 112.73 373.33 112.73 388.57C112.73 403.82 112.61 416.19 112.47 416.19C112.33 416.19 112.21 403.83 112.21 388.57C112.21 373.32 112.33 360.96 112.47 360.96Z" fill="#455A64"/>
<path d="M85.9598 423.52C85.9398 423.52 85.9198 423.35 85.8998 423.01C85.8798 422.62 85.8598 422.14 85.8298 421.55C85.7798 420.29 85.7198 418.46 85.6698 416.19C85.5698 411.67 85.5098 405.42 85.5698 398.51C85.6298 391.6 85.7898 385.35 85.9698 380.83C86.0598 378.57 86.1398 376.74 86.2198 375.48C86.2598 374.9 86.2898 374.42 86.3198 374.03C86.3498 373.7 86.3698 373.52 86.3898 373.52C86.4098 373.52 86.4198 373.7 86.4298 374.03C86.4298 374.42 86.4298 374.9 86.4298 375.49C86.4098 376.83 86.3798 378.64 86.3498 380.85C86.2898 385.44 86.1998 391.66 86.1098 398.52C86.0898 405.38 86.0698 411.59 86.0598 416.19C86.0598 418.39 86.0498 420.2 86.0498 421.55C86.0398 422.13 86.0298 422.61 86.0298 423.01C85.9898 423.35 85.9798 423.52 85.9598 423.52Z" fill="#455A64"/>
<path d="M281.89 246.88C281.89 246.88 297.44 249.84 305.35 274.95C314.4 303.66 329.67 362.52 329.55 369.31C329.43 376.1 312.11 386.98 312.11 386.98L287.3 378.71L274.28 329.73L281.89 246.88Z" fill="#FF725E"/>
<path d="M281.89 246.88L243.62 232.69L241 229.33L191.66 230.86L187.94 233.22C187.94 233.22 150.86 241.36 147.01 241.85C138.02 243 128.58 255.38 128.58 255.38C127.63 256.54 81.02 324.32 81.02 324.32L91.92 366.97C91.92 366.97 97.05 368.78 111.79 359.11C123.47 351.44 132.56 339.3 135.83 334.59L135.77 438.13H280.31L272.44 372.46L281.89 246.88Z" fill="#FF725E"/>
<path d="M274.55 315.1C274.53 315.1 274.55 314.92 274.61 314.59C274.68 314.2 274.78 313.72 274.89 313.14C275.16 311.81 275.52 310.01 275.96 307.82C276.85 303.33 278 297.11 279.04 290.2C280.08 283.29 280.81 277.01 281.28 272.45C281.5 270.23 281.69 268.41 281.83 267.05C281.89 266.46 281.95 265.98 281.99 265.58C282.03 265.25 282.06 265.07 282.08 265.07C282.1 265.07 282.1 265.25 282.09 265.59C282.07 265.99 282.05 266.47 282.03 267.06C281.97 268.34 281.84 270.19 281.65 272.48C281.27 277.05 280.59 283.35 279.55 290.27C278.51 297.19 277.3 303.41 276.32 307.89C275.83 310.13 275.41 311.94 275.09 313.18C274.94 313.75 274.82 314.22 274.72 314.61C274.62 314.93 274.57 315.1 274.55 315.1Z" fill="#263238"/>
<path d="M131.25 287.38C131.27 287.38 131.31 287.59 131.38 288C131.45 288.47 131.54 289.06 131.66 289.8C131.89 291.36 132.2 293.63 132.54 296.43C133.23 302.04 134.04 309.81 134.67 318.41C135.3 327.01 135.62 334.82 135.75 340.47C135.82 343.29 135.85 345.58 135.84 347.16C135.83 347.91 135.83 348.51 135.83 348.98C135.82 349.4 135.81 349.61 135.79 349.61C135.77 349.61 135.75 349.39 135.73 348.98C135.71 348.51 135.68 347.91 135.65 347.16C135.59 345.52 135.5 343.25 135.39 340.48C135.16 334.84 134.78 327.04 134.16 318.45C133.53 309.86 132.78 302.09 132.18 296.48C131.88 293.72 131.64 291.47 131.47 289.83C131.4 289.09 131.34 288.49 131.29 288.02C131.24 287.61 131.23 287.39 131.25 287.38Z" fill="#263238"/>
<path d="M243.61 237.82C243.62 237.83 243.45 238.01 243.1 238.32C242.75 238.64 242.24 239.09 241.56 239.67C240.21 240.82 238.22 242.46 235.68 244.37C233.12 246.25 230.05 248.51 226.24 250.36C222.39 252.13 217.8 253.24 212.94 253.5C208.08 253.75 203.36 253.2 199.4 251.64C195.45 250.07 192.38 247.6 190.35 245.14C188.31 242.66 187.25 240.24 186.77 238.52C186.54 237.66 186.39 236.98 186.35 236.51C186.29 236.05 186.26 235.8 186.28 235.8C186.3 235.8 186.36 236.04 186.45 236.49C186.53 236.95 186.71 237.61 186.96 238.46C187.49 240.14 188.58 242.5 190.62 244.9C192.65 247.29 195.69 249.68 199.56 251.19C203.44 252.69 208.1 253.22 212.89 252.97C217.69 252.71 222.23 251.63 226.02 249.91C229.78 248.11 232.87 245.89 235.44 244.06C238 242.2 240.02 240.6 241.41 239.5C242.07 238.97 242.6 238.55 243.01 238.23C243.41 237.96 243.6 237.81 243.61 237.82Z" fill="#263238"/>
<g opacity="0.3">
<path d="M169.8 285.75C164.04 289.74 163.34 297.82 163.01 304.82C161.66 333.56 143.32 388.43 135.78 416.19C159.53 379.51 174.09 329.24 169.8 285.75Z" fill="black"/>
</g>
<path d="M171.37 236.82C171.37 236.82 169.45 298.66 164.15 335.78C158.85 372.89 133.13 422.29 133.13 422.29L128.99 414.2C128.99 414.2 143.21 372.97 149.64 338.44C154.19 314.02 149.64 240.46 149.64 240.46C149.64 240.46 159.03 233.94 171.37 236.82Z" fill="#263238"/>
<path d="M157.72 298.06C157.58 298.05 157.91 285.18 158.47 269.3C159.03 253.42 159.6 240.55 159.74 240.55C159.88 240.56 159.55 253.43 158.99 269.31C158.43 285.2 157.86 298.07 157.72 298.06Z" fill="#455A64"/>
<path d="M77.5998 301.61L72.6698 314.35C72.6698 314.35 66.1298 327.68 66.6298 336.73C67.1298 345.78 78.5498 378.89 101.62 368.16C124.69 357.43 113.18 340 113.18 340L102.34 310.32L85.3298 299.13C82.5598 297.31 78.8098 298.51 77.5998 301.61Z" fill="#FF725E"/>
<path d="M104.84 266.21C106.35 268.22 115.06 265.91 117.04 269.98C119.02 274.05 117.04 277.12 117.04 277.12C117.04 277.12 120.44 281.05 117.92 286.08C117.92 286.08 119.28 288.85 118.85 292.12C118.42 295.39 115.92 297.4 115.92 297.4C115.92 297.4 116.65 300.92 113.64 302.93C110.62 304.94 102.7 306.47 102.7 306.47L99.4297 312.49C99.4297 312.49 94.9197 317.52 89.3097 315.26C83.6997 313 79.9297 301.85 79.9297 301.85C80.1797 300.42 86.4697 290.01 86.4697 290.01C86.4697 290.01 87.7297 274.52 90.4897 270.74C93.2497 266.96 94.5097 266.21 94.5097 266.21C94.5097 266.21 96.9197 261.04 96.9197 258.82C96.9197 256.6 94.8597 249.5 96.0897 248.06C97.3297 246.61 102.4 247.62 104.62 253.49C106.86 259.36 104.84 266.21 104.84 266.21Z" fill="#FFBF9D"/>
<path d="M116.75 276.65C116.72 276.81 113.75 276.28 110.06 276.27C106.37 276.24 103.39 276.72 103.37 276.57C103.36 276.5 104.09 276.3 105.3 276.1C106.51 275.9 108.2 275.74 110.07 275.75C111.94 275.76 113.63 275.95 114.83 276.16C116.04 276.37 116.77 276.59 116.75 276.65Z" fill="#FF9A6C"/>
<path d="M117.44 286.88C117.41 287.04 114.62 286.47 111.13 286.47C107.65 286.45 104.85 286.99 104.82 286.84C104.78 286.72 107.58 285.93 111.13 285.95C114.69 285.95 117.48 286.76 117.44 286.88Z" fill="#FF9A6C"/>
<path d="M116.74 297.21C116.78 297.33 114.37 298.16 111.27 298.38C108.16 298.62 105.66 298.16 105.68 298.03C105.7 297.87 108.18 298.1 111.23 297.86C114.28 297.65 116.7 297.06 116.74 297.21Z" fill="#FF9A6C"/>
<path d="M109.1 304.64C109.12 304.69 108.28 305.18 106.79 305.66C105.3 306.15 103.14 306.55 100.74 306.47C98.3396 306.38 96.2096 305.81 94.7596 305.21C93.3096 304.62 92.4996 304.06 92.5296 304.02C92.5896 303.85 96.0296 305.81 100.75 305.95C105.48 306.16 109.06 304.46 109.1 304.64Z" fill="#FF9A6C"/>
<path d="M109.19 267.49C109.16 267.65 105.96 266.97 101.97 267.11C97.9797 267.22 94.8197 268.11 94.7797 267.95C94.7597 267.89 95.5297 267.59 96.8197 267.27C98.1097 266.95 99.9297 266.66 101.95 266.59C103.98 266.53 105.81 266.71 107.12 266.94C108.42 267.18 109.2 267.43 109.19 267.49Z" fill="#FF9A6C"/>
<path d="M110.93 354.88C110.88 354.86 111.19 354.25 111.63 353.11C112.08 351.98 112.63 350.29 112.95 348.13C113.25 345.98 113.37 343.36 112.86 340.53C112.39 337.69 111.27 334.69 109.45 331.91C107.63 329.14 105.61 326.59 104.49 323.85C103.32 321.16 102.77 318.56 102.39 316.4C102.03 314.23 101.86 312.46 101.74 311.23C101.7 310.67 101.66 310.2 101.63 309.82C101.61 309.5 101.61 309.33 101.63 309.32C101.65 309.32 101.68 309.48 101.74 309.8C101.8 310.18 101.86 310.64 101.94 311.2C102.11 312.41 102.34 314.18 102.75 316.32C103.17 318.46 103.76 321.01 104.93 323.64C106.05 326.3 108.04 328.79 109.89 331.61C111.75 334.44 112.89 337.53 113.34 340.43C113.84 343.32 113.68 346 113.32 348.17C112.95 350.35 112.33 352.05 111.82 353.17C111.59 353.74 111.34 354.15 111.19 354.44C111.03 354.74 110.95 354.89 110.93 354.88Z" fill="#263238"/>
<g opacity="0.3">
<path d="M101.94 309.04C102.07 309.58 102.23 310.1 102.4 310.63C102.4 310.08 102.4 309.53 102.4 308.99L101.94 309.04Z" fill="black"/>
</g>
<g opacity="0.3">
<path d="M111.86 326.89C108.44 321.61 104.34 316.56 102.41 310.63C102.42 315.68 102.65 320.82 104.76 325.37C106.14 328.36 108.27 330.94 110.04 333.72C111.81 336.5 113.26 339.68 113.04 342.97C112.96 344.14 112.67 345.33 112.96 346.46C113.25 347.59 114.41 348.64 115.51 348.24C116.34 347.94 116.74 347.01 116.96 346.16C118.67 339.53 115.58 332.63 111.86 326.89Z" fill="black"/>
</g>
<path d="M267.83 178.94C265.54 180.22 262.47 178.56 261.43 176.15C260.39 173.74 260.87 170.96 261.66 168.46C262.45 165.96 263.55 163.5 263.7 160.89C263.99 156.13 260.74 151.38 256.2 149.92C260.65 146.39 261.02 138.82 256.93 134.88C255.02 133.04 252.47 132.03 250.24 130.58C248.97 129.75 247.81 128.77 246.72 127.71C248.74 128.14 250.76 128.34 252.79 127.9C256.02 127.2 258.85 124.78 259.92 121.66C260.98 118.53 260.16 114.81 257.77 112.53C255.38 110.25 251.52 109.63 248.6 111.17C245.72 112.69 244.15 115.82 242.75 118.75C242.32 119.66 241.88 120.57 241.45 121.48C237.4 116.11 233.59 110.57 227.35 108.69C221.69 106.98 215.6 108.89 209.7 108.46C205.4 108.15 201.28 106.6 196.99 106.13C192.7 105.66 187.83 106.58 185.3 110.07C183.82 112.12 183.35 114.77 181.84 116.8C178.74 121 172.05 121.57 169.5 126.13C167.43 129.84 169.02 134.51 168.13 138.66C167.16 143.18 163.44 146.47 160.39 149.94C157.34 153.41 154.69 158.17 156.4 162.46C157.9 166.23 162.31 168.26 163.74 172.06C164.79 174.83 164.02 177.91 163.97 180.87C163.92 183.83 165.1 187.35 167.99 188.02L200.84 196.7C212.15 201.3 223.83 205.98 236.04 205.96C248.25 205.94 261.29 200.08 266.11 188.86C264.35 188.79 262.62 188.02 261.39 186.75C264.58 185.3 267.02 182.34 267.83 178.94Z" fill="#263238"/>
<path d="M240.91 189.25C243.62 180.92 246.29 172.52 247.53 163.85C248.76 155.18 248.5 146.13 245.45 137.92C244.99 136.67 241.04 128.32 239.72 128.45C238.78 128.54 241.21 136.34 240.73 137.16C236.17 144.99 234.93 154.41 235.66 163.44C236.38 172.46 238.26 180.59 240.91 189.25Z" fill="#263238"/>
<path d="M208.32 115.03L206.29 115.14C185.85 116.24 169.67 132.84 169.12 153.3C168.61 172.34 167.91 190.62 168.58 200.78C169.97 221.82 191.58 224.01 191.58 224.01V234.87C192.51 245.95 206.86 247.94 212.3 247.46C231.09 247.46 240.89 232.08 240.89 232.08L241.77 155.81C242.49 133.86 230.3 115.14 208.32 115.03Z" fill="#FFBF9D"/>
<path d="M191.58 223.97C191.58 223.97 204.89 224.04 218.56 214.4C218.56 214.4 212.7 230.07 191.59 229.3L191.58 223.97Z" fill="#FF9A6C"/>
<path d="M178.81 170.57C178.84 172.16 180.21 173.45 181.87 173.45C183.53 173.45 184.85 172.16 184.82 170.57C184.79 168.98 183.42 167.69 181.76 167.69C180.11 167.69 178.78 168.98 178.81 170.57Z" fill="#263238"/>
<path d="M174.09 161.8C174.48 162.17 176.67 160.36 179.91 160.2C183.14 159.99 185.6 161.53 185.93 161.11C186.09 160.93 185.68 160.24 184.6 159.54C183.54 158.85 181.77 158.21 179.75 158.33C177.74 158.45 176.08 159.28 175.15 160.09C174.19 160.91 173.89 161.64 174.09 161.8Z" fill="#263238"/>
<path d="M208.09 170.64C208.12 172.23 209.49 173.52 211.15 173.52C212.81 173.52 214.13 172.23 214.1 170.64C214.07 169.05 212.7 167.76 211.04 167.76C209.38 167.76 208.06 169.05 208.09 170.64Z" fill="#263238"/>
<path d="M205.85 161.41C206.24 161.78 208.44 159.97 211.67 159.81C214.9 159.6 217.36 161.14 217.69 160.72C217.85 160.54 217.44 159.85 216.36 159.15C215.3 158.45 213.53 157.82 211.51 157.93C209.5 158.05 207.84 158.88 206.91 159.69C205.96 160.52 205.66 161.25 205.85 161.41Z" fill="#263238"/>
<path d="M195.58 186.9C195.59 186.72 193.56 186.48 190.27 186.23C189.44 186.19 188.65 186.07 188.48 185.51C188.25 184.92 188.55 184.01 188.9 183.03C189.57 180.99 190.27 178.85 191.01 176.61C193.92 167.47 195.98 159.97 195.62 159.86C195.25 159.75 192.59 167.06 189.68 176.2C188.98 178.45 188.31 180.6 187.68 182.65C187.42 183.61 186.94 184.7 187.43 185.92C187.69 186.53 188.32 186.94 188.85 187.06C189.39 187.19 189.85 187.18 190.26 187.18C193.54 187.18 195.57 187.08 195.58 186.9Z" fill="#263238"/>
<path d="M205.22 188.63C204.69 188.63 204.87 192.14 202 194.79C199.13 197.45 195.37 197.26 195.37 197.75C195.33 197.97 196.24 198.39 197.82 198.35C199.37 198.32 201.61 197.7 203.37 196.08C205.12 194.45 205.8 192.37 205.84 190.92C205.9 189.44 205.46 188.59 205.22 188.63Z" fill="#263238"/>
<path d="M205.33 148.27C205.7 149.13 208.9 148.54 212.72 148.8C216.55 148.98 219.67 149.92 220.13 149.11C220.33 148.72 219.76 147.92 218.47 147.14C217.2 146.36 215.2 145.65 212.9 145.52C210.61 145.39 208.54 145.87 207.19 146.5C205.83 147.13 205.17 147.86 205.33 148.27Z" fill="#263238"/>
<path d="M174.85 150.98C175.46 151.68 177.65 150.8 180.33 150.62C183 150.35 185.31 150.85 185.79 150.05C186 149.66 185.6 148.95 184.57 148.31C183.56 147.67 181.89 147.19 180.05 147.34C178.21 147.5 176.65 148.25 175.76 149.05C174.85 149.86 174.58 150.63 174.85 150.98Z" fill="#263238"/>
<path d="M240.89 171.51C241.24 171.34 255.13 166.46 255.44 180.87C255.75 195.29 241.21 192.63 241.18 192.22C241.14 191.8 240.89 171.51 240.89 171.51Z" fill="#FFBF9D"/>
<path d="M245.46 186.66C245.52 186.61 245.72 186.83 246.14 187.02C246.56 187.2 247.27 187.32 248.02 187.02C249.53 186.43 250.76 183.98 250.78 181.38C250.79 180.07 250.49 178.82 250 177.8C249.54 176.75 248.84 176.03 248.07 175.91C247.3 175.75 246.77 176.22 246.6 176.63C246.42 177.04 246.51 177.32 246.44 177.35C246.4 177.39 246.13 177.12 246.23 176.52C246.28 176.23 246.45 175.89 246.78 175.6C247.12 175.31 247.63 175.16 248.16 175.2C249.27 175.25 250.3 176.25 250.83 177.38C251.43 178.51 251.8 179.91 251.79 181.38C251.76 184.29 250.33 187.04 248.26 187.69C247.25 187.98 246.4 187.69 245.95 187.36C245.5 187 245.41 186.68 245.46 186.66Z" fill="#FF9A6C"/>
<path d="M178.14 129.3C175.79 128.04 182.7 120.39 188.4 117.72C197.02 113.68 210.22 111.08 218.25 113.25C227.91 115.86 235.96 120.54 240.91 129.24C245.85 137.94 247.8 148.12 247.65 158.12C247.6 161.17 247.33 164.36 245.73 166.96C243.76 170.17 239.92 172.23 240.14 176.63C240.22 178.24 239.78 179.87 238.7 181.05C236.1 183.89 232.84 181.29 231.32 178.67C228.08 173.06 227.64 166.32 227.28 159.86C227.02 155.26 226.78 150.57 228.02 146.13C228.69 143.72 229.8 141.43 230.34 138.98C230.88 136.53 230.77 133.77 229.23 131.79C228.98 131.47 228.57 131.07 228.04 130.62C223.91 127.09 218.18 126.09 213.08 127.97C205 130.95 191.18 135.42 187.52 132.71C182.26 128.81 180.98 126.24 180.98 126.24L178.14 129.3Z" fill="#263238"/>
<path d="M217.47 111.29C209.51 108.74 200.49 109 193.12 112.94C189.21 115.03 185.69 118.34 184.55 122.63C183.4 126.92 185.29 132.15 189.42 133.77L189.7 133.94C195.88 135.93 199.87 135.06 205.98 132.85C211.12 131 215.67 127.75 220.82 125.92C226.29 123.98 232.35 123.72 237.97 125.2C232.37 119.01 225.43 113.84 217.47 111.29Z" fill="#263238"/>
<path d="M244.89 125.55C244.77 125.66 243.61 124.28 241.26 122.65C240.09 121.85 238.63 120.97 236.88 120.31C235.15 119.65 233.12 119.16 231.02 119.33C226.74 119.74 223.17 121.73 220.97 123.48C218.74 125.25 217.7 126.73 217.57 126.63C217.52 126.6 217.72 126.19 218.2 125.52C218.67 124.85 219.44 123.94 220.54 122.96C222.71 121.02 226.38 118.81 230.95 118.38C233.26 118.19 235.42 118.76 237.22 119.5C239.03 120.24 240.51 121.22 241.67 122.12C243.99 123.93 244.98 125.5 244.89 125.55Z" fill="#455A64"/>
<path d="M246.33 130.66C246.43 130.68 246.19 132.31 245.23 134.78C244.28 137.24 242.51 140.5 239.82 143.54C237.12 146.57 234.1 148.72 231.77 149.95C229.43 151.19 227.85 151.63 227.81 151.53C227.64 151.25 233.86 148.89 239.1 142.9C244.43 136.99 246.04 130.53 246.33 130.66Z" fill="#455A64"/>
<path d="M252.2 133C252.26 133 252.3 133.59 252.26 134.64C252.22 135.69 252.05 137.22 251.63 139.07C250.83 142.75 248.8 147.77 244.97 152.18C241.13 156.58 236.43 159.27 232.89 160.57C231.11 161.23 229.63 161.61 228.59 161.8C227.55 161.99 226.97 162.03 226.96 161.97C226.92 161.8 229.23 161.4 232.64 159.94C236.04 158.51 240.53 155.81 244.24 151.55C247.95 147.29 250.01 142.47 250.97 138.91C251.95 135.32 252.03 132.98 252.2 133Z" fill="#455A64"/>
<path d="M200.95 109.98C200.98 110.14 199.45 110.49 197.13 111.42C194.81 112.34 191.72 113.94 188.78 116.36C185.85 118.79 183.68 121.51 182.34 123.61C180.99 125.71 180.35 127.15 180.2 127.08C180.1 127.04 180.52 125.51 181.76 123.26C182.98 121.01 185.14 118.12 188.18 115.61C191.22 113.11 194.47 111.55 196.91 110.78C199.35 109.99 200.94 109.88 200.95 109.98Z" fill="#455A64"/>
<path d="M256.72 111.79C256.96 111.78 256.33 115.97 253.06 119.81C249.84 123.69 245.82 125.04 245.79 124.8C245.65 124.54 249.28 122.87 252.32 119.19C255.43 115.56 256.44 111.69 256.72 111.79Z" fill="#455A64"/>
<path d="M211.1 179.41C211.1 179.71 210.86 179.95 210.56 179.95C210.26 179.95 210.02 179.71 210.02 179.41C210.02 179.11 210.26 178.87 210.56 178.87C210.86 178.87 211.1 179.11 211.1 179.41Z" fill="#FF9A6C"/>
<path d="M214.53 179.95C214.828 179.95 215.07 179.708 215.07 179.41C215.07 179.112 214.828 178.87 214.53 178.87C214.232 178.87 213.99 179.112 213.99 179.41C213.99 179.708 214.232 179.95 214.53 179.95Z" fill="#FF9A6C"/>
<path d="M250.95 370L188.87 351.46C187.81 351.14 187.21 350.03 187.53 348.98L213.12 263.28C213.44 262.22 214.55 261.62 215.6 261.94L277.68 280.48C278.74 280.8 279.34 281.91 279.02 282.96L253.43 368.66C253.12 369.71 252.01 370.31 250.95 370Z" fill="#455A64"/>
<path d="M190.74 338.8C188.1 338.29 186.26 335.96 186.36 333.28C186.47 330.29 189.01 327.95 191.98 328.05C194.97 328.16 197.32 330.68 197.21 333.67L196.21 333.63C196.3 331.19 194.38 329.13 191.94 329.05C189.51 328.97 187.44 330.88 187.36 333.32C187.28 335.51 188.78 337.41 190.93 337.82L190.74 338.8Z" fill="#263238"/>
<path d="M192.98 331.44C190.34 330.93 188.5 328.6 188.6 325.92C188.71 322.93 191.2 320.59 194.22 320.69C197.21 320.8 199.56 323.32 199.45 326.31L198.45 326.27C198.54 323.83 196.62 321.77 194.18 321.69C191.74 321.61 189.68 323.52 189.6 325.96C189.52 328.15 191.02 330.05 193.17 330.46L192.98 331.44Z" fill="#263238"/>
<path d="M195.22 324.07C192.58 323.56 190.74 321.24 190.84 318.55C190.89 317.1 191.5 315.76 192.57 314.77C193.63 313.78 195.01 313.28 196.46 313.32C199.45 313.43 201.8 315.95 201.69 318.94L200.69 318.9C200.78 316.46 198.86 314.4 196.42 314.32C195.25 314.28 194.11 314.7 193.24 315.5C192.37 316.31 191.87 317.4 191.83 318.58C191.75 320.77 193.25 322.67 195.4 323.08L195.22 324.07Z" fill="#263238"/>
<path d="M197.46 316.71C194.82 316.2 192.98 313.87 193.08 311.19C193.19 308.2 195.68 305.87 198.7 305.96C200.15 306.01 201.49 306.63 202.48 307.69C203.47 308.75 203.98 310.13 203.93 311.58L202.93 311.54C202.97 310.36 202.55 309.23 201.75 308.36C200.94 307.49 199.85 306.99 198.67 306.95C197.49 306.91 196.36 307.33 195.49 308.13C194.62 308.94 194.12 310.03 194.08 311.21C194 313.4 195.5 315.3 197.65 315.71L197.46 316.71Z" fill="#263238"/>
<path d="M199.7 309.35C197.06 308.84 195.22 306.52 195.32 303.83C195.37 302.38 195.98 301.04 197.05 300.05C198.11 299.06 199.5 298.56 200.94 298.6C203.93 298.71 206.28 301.23 206.17 304.22L205.17 304.18C205.26 301.74 203.34 299.68 200.9 299.6C199.71 299.56 198.59 299.98 197.72 300.78C196.85 301.59 196.35 302.68 196.31 303.86C196.23 306.05 197.73 307.95 199.88 308.36L199.7 309.35Z" fill="#263238"/>
<path d="M201.94 301.99C199.3 301.48 197.46 299.15 197.56 296.47C197.61 295.02 198.22 293.68 199.29 292.69C200.35 291.7 201.75 291.2 203.18 291.24C204.63 291.29 205.97 291.91 206.96 292.97C207.95 294.03 208.46 295.41 208.41 296.86L207.41 296.82C207.5 294.38 205.58 292.32 203.14 292.24C201.97 292.2 200.83 292.62 199.96 293.42C199.09 294.23 198.59 295.32 198.55 296.5C198.47 298.69 199.97 300.59 202.12 301L201.94 301.99Z" fill="#263238"/>
<path d="M204.18 294.63C201.54 294.12 199.7 291.79 199.8 289.11C199.9 286.18 202.32 283.88 205.22 283.88C205.29 283.88 205.35 283.88 205.42 283.88C208.41 283.99 210.76 286.51 210.65 289.5L209.65 289.46C209.74 287.02 207.82 284.96 205.38 284.88C202.95 284.79 200.88 286.71 200.8 289.15C200.72 291.34 202.22 293.24 204.37 293.65L204.18 294.63Z" fill="#263238"/>
<path d="M206.42 287.27C203.78 286.76 201.94 284.43 202.04 281.75C202.15 278.76 204.67 276.41 207.66 276.52C209.11 276.57 210.45 277.19 211.44 278.25C212.43 279.31 212.94 280.69 212.89 282.14L211.89 282.1C211.93 280.92 211.51 279.79 210.71 278.92C209.9 278.05 208.81 277.55 207.63 277.51C205.16 277.41 203.13 279.34 203.05 281.78C202.97 283.97 204.47 285.87 206.62 286.28L206.42 287.27Z" fill="#263238"/>
<path d="M208.66 279.9C206.02 279.39 204.18 277.06 204.28 274.38C204.33 272.93 204.95 271.59 206.01 270.6C207.07 269.61 208.46 269.1 209.9 269.15C212.89 269.26 215.24 271.78 215.13 274.77L214.13 274.73C214.22 272.29 212.3 270.23 209.86 270.15C208.66 270.11 207.55 270.53 206.68 271.33C205.81 272.14 205.31 273.23 205.27 274.41C205.19 276.6 206.69 278.5 208.84 278.91L208.66 279.9Z" fill="#263238"/>
<path d="M210.9 272.54C208.26 272.03 206.42 269.71 206.52 267.02C206.57 265.57 207.19 264.23 208.25 263.24C209.31 262.25 210.7 261.75 212.14 261.79C215.13 261.9 217.48 264.42 217.37 267.41L216.37 267.37C216.46 264.93 214.54 262.87 212.1 262.79C209.67 262.69 207.6 264.62 207.52 267.06C207.44 269.25 208.94 271.15 211.09 271.56L210.9 272.54Z" fill="#263238"/>
<path d="M188.5 346.16C185.86 345.65 184.02 343.32 184.12 340.64C184.17 339.19 184.78 337.85 185.85 336.86C186.91 335.87 188.3 335.37 189.74 335.41C192.73 335.52 195.08 338.04 194.97 341.03L193.97 340.99C194.06 338.55 192.14 336.49 189.7 336.41C188.53 336.37 187.39 336.79 186.52 337.59C185.65 338.4 185.15 339.49 185.11 340.67C185.03 342.86 186.53 344.76 188.68 345.17L188.5 346.16Z" fill="#263238"/>
<path d="M196.05 340.44C197.15 337.61 209.12 295.5 214.6 278.21C215.82 274.36 220.31 272.07 224.14 273.33L285.63 291.61C289.34 292.82 291.43 296.76 290.35 300.52L263.17 394.67C262.07 398.47 258.13 400.7 254.31 399.66L191.66 382.72C187.76 381.66 185.47 377.62 186.57 373.73L195.92 340.81L196.05 340.44Z" fill="white"/>
<path d="M218.01 271.26C215.53 270.6 212.97 272.01 212.22 274.47C207.64 289.46 192.87 337.77 191.78 340.78L180.88 376.47C180.09 379.06 181.62 381.79 184.24 382.47L251.74 400.02C254.24 400.67 256.8 399.21 257.52 396.73L286.94 294.74C287.68 292.18 286.17 289.51 283.59 288.82L218.01 271.26Z" fill="#E0E0E0"/>
<path d="M218.01 271.26C218.01 271.26 218.34 271.33 218.97 271.49C219.61 271.66 220.54 271.9 221.76 272.21C224.22 272.86 227.83 273.81 232.48 275.03C241.79 277.5 255.25 281.08 271.88 285.5C273.96 286.05 276.09 286.62 278.26 287.2C279.35 287.49 280.45 287.78 281.56 288.08C282.12 288.23 282.67 288.38 283.24 288.53C283.79 288.66 284.4 288.86 284.92 289.18C285.97 289.81 286.78 290.85 287.13 292.05C287.31 292.65 287.37 293.28 287.31 293.91C287.26 294.55 287.04 295.14 286.88 295.72C286.21 298.07 285.52 300.46 284.82 302.89C282.02 312.62 279.03 323.01 275.89 333.94C272.74 344.87 269.44 356.35 266.01 368.25C264.3 374.2 262.55 380.25 260.78 386.39C259.89 389.46 259 392.56 258.1 395.67L257.76 396.84C257.63 397.25 257.47 397.65 257.24 398.01C256.81 398.75 256.16 399.36 255.42 399.79C254.67 400.2 253.81 400.45 252.95 400.44C252.52 400.45 252.09 400.37 251.67 400.28L250.48 399.97C237.77 396.66 225.36 393.44 213.38 390.32C207.39 388.76 201.5 387.23 195.74 385.73C192.86 384.98 190.01 384.24 187.19 383.5C186.49 383.32 185.78 383.13 185.08 382.95C184.4 382.77 183.64 382.61 182.98 382.22C181.65 381.48 180.73 380.11 180.51 378.63C180.39 377.89 180.45 377.13 180.66 376.42C180.87 375.74 181.07 375.07 181.28 374.4C181.69 373.06 182.1 371.72 182.51 370.4C183.32 367.75 184.12 365.13 184.91 362.56C186.49 357.41 188.02 352.4 189.5 347.56C192.48 337.89 195.27 328.89 197.8 320.66C202.9 304.23 207.03 290.94 209.88 281.73C210.6 279.44 211.23 277.4 211.79 275.63C212.07 274.76 212.28 273.9 212.73 273.24C213.16 272.57 213.72 272.1 214.27 271.76C215.38 271.1 216.41 271.04 217.05 271.08C217.7 271.14 218.01 271.26 218.01 271.26C218.01 271.28 217.69 271.17 217.04 271.13C216.41 271.11 215.4 271.18 214.32 271.85C213.79 272.18 213.25 272.65 212.84 273.31C212.41 273.95 212.21 274.79 211.93 275.68C211.39 277.45 210.77 279.5 210.07 281.8C207.25 291.02 203.18 304.33 198.14 320.78C195.62 329.01 192.86 338.02 189.9 347.7C188.43 352.54 186.9 357.55 185.33 362.7C184.54 365.28 183.75 367.89 182.94 370.54C182.54 371.87 182.13 373.2 181.72 374.54C181.52 375.21 181.31 375.89 181.1 376.56C180.91 377.2 180.86 377.89 180.96 378.56C181.16 379.9 182 381.14 183.2 381.8C183.79 382.15 184.47 382.29 185.18 382.48C185.88 382.66 186.58 382.84 187.29 383.03C190.11 383.76 192.96 384.5 195.85 385.25C201.62 386.75 207.5 388.28 213.5 389.83C225.49 392.94 237.9 396.17 250.61 399.47C251.42 399.67 252.18 399.94 252.95 399.92C253.72 399.93 254.49 399.71 255.16 399.34C255.82 398.95 256.41 398.41 256.79 397.74C257.2 397.1 257.35 396.31 257.59 395.52C258.49 392.41 259.38 389.31 260.27 386.24C262.04 380.1 263.79 374.04 265.51 368.1C268.95 356.21 272.26 344.73 275.42 333.8C278.58 322.87 281.58 312.49 284.4 302.76C285.1 300.33 285.79 297.94 286.47 295.6C286.63 295.01 286.84 294.44 286.89 293.87C286.95 293.29 286.89 292.71 286.73 292.16C286.41 291.06 285.67 290.1 284.71 289.52C284.22 289.22 283.71 289.05 283.14 288.91C282.58 288.76 282.02 288.61 281.47 288.46C280.36 288.16 279.26 287.87 278.17 287.57C276 286.98 273.87 286.41 271.79 285.85C255.18 281.37 241.74 277.74 232.44 275.22C227.8 273.96 224.2 272.97 221.75 272.3C220.54 271.96 219.61 271.71 218.97 271.53C218.33 271.37 218.01 271.26 218.01 271.26Z" fill="#263238"/>
<g opacity="0.3">
<path d="M222.83 370.28L182.84 367.2C183.35 370.16 185.67 372.55 188.33 373.91C191 375.28 194.01 375.79 196.97 376.28C201.5 377.03 206.03 377.79 210.56 378.54C212.29 378.83 214.12 379.17 215.41 380.35C216.81 381.63 217.27 383.62 218.36 385.17C220.14 387.71 223.34 388.76 226.32 389.64C238.12 393.11 250.02 396.29 262.12 398.51C265.48 399.12 268.96 399.66 272.28 398.86C275.6 398.05 278.74 395.58 279.3 392.21L222.83 370.28Z" fill="black"/>
</g>
<path d="M220.81 272.99C220.95 273.03 213.37 297.6 203.9 327.85C194.42 358.11 186.63 382.6 186.49 382.56C186.35 382.52 193.92 357.96 203.41 327.69C212.87 297.44 220.67 272.94 220.81 272.99Z" fill="#263238"/>
<path d="M267.595 307.407L228.654 295.78L222.835 315.27L261.776 326.897L267.595 307.407Z" fill="white"/>
<path d="M228.53 341.55C228.53 341.55 218.65 328.4 215.08 325.4C211.51 322.4 196.71 324.8 196.71 324.8L190.28 331.56C190.28 331.56 191.55 336.7 197.54 334.16L199.21 332.9H206.08L210.34 337.86L196.97 337.63C196.97 337.63 190.4 333.36 188.9 333.36C187.4 333.36 183.8 336.24 186.41 341.32C186.41 341.32 181.41 342.93 183.14 349.74C183.14 349.74 178.95 350.89 182.78 358.96L183.26 359.88C183.26 359.88 178.88 361.96 181.76 366.57C184.64 371.18 191.91 372.57 194.1 372.45C196.29 372.33 235.71 378.14 235.71 378.14L246.37 350.44L228.53 341.55Z" fill="#FFBF9D"/>
<path d="M198.65 348.28C198.65 348.34 197.83 348.38 196.53 348.18C195.23 347.98 193.47 347.46 191.7 346.49C189.94 345.51 188.55 344.29 187.69 343.31C186.82 342.32 186.43 341.61 186.47 341.58C186.6 341.46 188.48 344.16 191.95 346.04C195.4 347.96 198.69 348.11 198.65 348.28Z" fill="#FF9A6C"/>
<path d="M192.33 357.14C192.31 357.2 191.62 357.06 190.55 356.62C189.49 356.19 188.08 355.44 186.7 354.36C185.32 353.27 184.26 352.08 183.59 351.15C182.92 350.22 182.62 349.58 182.67 349.55C182.81 349.45 184.31 351.85 187.02 353.95C189.7 356.09 192.39 356.99 192.33 357.14Z" fill="#FF9A6C"/>
<path d="M192.35 365.17C192.33 365.3 189.83 364.88 187.13 363.38C184.42 361.9 182.73 360.01 182.82 359.93C182.93 359.81 184.74 361.49 187.38 362.92C190.01 364.38 192.39 365.02 192.35 365.17Z" fill="#FF9A6C"/>
<path d="M327.85 359.13L284.99 352.47L234.61 342.95L222.83 382.55C222.83 382.55 283.03 400.2 299.52 402.37C317.14 404.69 323.98 402.37 329.56 390.79C333.12 383.4 330.91 368.59 327.85 359.13Z" fill="#FF725E"/>
<path d="M287.92 400.09C287.92 400.1 287.81 400.08 287.6 400.03C287.37 399.97 287.06 399.9 286.66 399.8C285.81 399.58 284.6 399.27 283.03 398.86C279.85 398.02 275.24 396.8 269.47 395.28C257.88 392.18 241.61 387.82 222.76 382.78L222.51 382.71L222.58 382.46C224.93 374.55 227.47 366.01 230.1 357.16C231.56 352.26 232.99 347.46 234.36 342.86L234.43 342.64L234.66 342.69C256.61 347.04 275.95 350.87 289.83 353.62C296.74 355.01 302.29 356.13 306.13 356.9C308.02 357.29 309.49 357.6 310.52 357.81C311 357.91 311.38 358 311.65 358.06C311.9 358.12 312.03 358.15 312.03 358.16C312.03 358.17 311.9 358.15 311.64 358.11C311.36 358.06 310.98 357.99 310.5 357.91C309.47 357.72 308 357.44 306.1 357.09C302.25 356.35 296.69 355.29 289.77 353.96C275.88 351.25 256.53 347.48 234.56 343.21L234.86 343.03C233.49 347.62 232.07 352.43 230.61 357.33C227.97 366.18 225.43 374.72 223.07 382.63L222.9 382.32C241.73 387.44 257.98 391.85 269.56 395C275.32 396.58 279.9 397.85 283.08 398.72C284.64 399.16 285.84 399.5 286.69 399.74C287.08 399.86 287.39 399.95 287.62 400.01C287.82 400.05 287.92 400.09 287.92 400.09Z" fill="#263238"/>
</svg>
